<svg xmlns="http://www.w3.org/2000/svg" xmlns:xlink="http://www.w3.org/1999/xlink" width="100" zoomAndPan="magnify" viewBox="0 0 75 74.999997" height="100" preserveAspectRatio="xMidYMid meet" version="1.0"><defs><g/></defs><rect x="-7.5" width="90" fill="#ffffff" y="-7.5" height="89.999996" fill-opacity="1"/><rect x="-7.5" width="90" fill="#ffffff" y="-7.5" height="89.999996" fill-opacity="1"/><rect x="-7.5" width="90" fill="#2b192e" y="-7.5" height="89.999996" fill-opacity="1"/><path stroke-linecap="butt" transform="matrix(0.335163, 0.0000264566, -0.0000263475, 0.33378, 1.335279, 47.310156)" fill="none" stroke-linejoin="miter" d="M 0.00243724 5.998997 L 105.57137 6.002332 " stroke="#ffffff" stroke-width="12" stroke-opacity="1" stroke-miterlimit="4"/><g fill="#ffffff" fill-opacity="1"><g transform="translate(0.0000015, 44.056853)"><g><path d="M 13.625 -8.171875 C 14.519531 -7.859375 15.21875 -7.367188 15.71875 -6.703125 C 16.226562 -6.046875 16.484375 -5.242188 16.484375 -4.296875 C 16.484375 -2.921875 15.929688 -1.859375 14.828125 -1.109375 C 13.722656 -0.367188 12.125 0 10.03125 0 L 1.5625 0 L 1.5625 -15.6875 L 9.59375 -15.6875 C 11.59375 -15.6875 13.113281 -15.316406 14.15625 -14.578125 C 15.207031 -13.835938 15.734375 -12.835938 15.734375 -11.578125 C 15.734375 -10.835938 15.546875 -10.171875 15.171875 -9.578125 C 14.804688 -8.984375 14.289062 -8.515625 13.625 -8.171875 Z M 5.953125 -12.484375 L 5.953125 -9.453125 L 9 -9.453125 C 10.5 -9.453125 11.25 -9.960938 11.25 -10.984375 C 11.25 -11.984375 10.5 -12.484375 9 -12.484375 Z M 9.671875 -3.203125 C 11.234375 -3.203125 12.015625 -3.734375 12.015625 -4.796875 C 12.015625 -5.859375 11.234375 -6.390625 9.671875 -6.390625 L 5.953125 -6.390625 L 5.953125 -3.203125 Z M 9.671875 -3.203125 "/></g></g></g><g fill="#ffffff" fill-opacity="1"><g transform="translate(19.177779, 44.056853)"><g><path d="M 9.484375 0.3125 C 7.816406 0.3125 6.320312 -0.0351562 5 -0.734375 C 3.6875 -1.441406 2.648438 -2.414062 1.890625 -3.65625 C 1.140625 -4.894531 0.765625 -6.289062 0.765625 -7.84375 C 0.765625 -9.394531 1.140625 -10.789062 1.890625 -12.03125 C 2.648438 -13.269531 3.6875 -14.238281 5 -14.9375 C 6.320312 -15.644531 7.816406 -16 9.484375 -16 C 11.140625 -16 12.628906 -15.644531 13.953125 -14.9375 C 15.273438 -14.238281 16.3125 -13.269531 17.0625 -12.03125 C 17.8125 -10.789062 18.1875 -9.394531 18.1875 -7.84375 C 18.1875 -6.289062 17.8125 -4.894531 17.0625 -3.65625 C 16.3125 -2.414062 15.273438 -1.441406 13.953125 -0.734375 C 12.628906 -0.0351562 11.140625 0.3125 9.484375 0.3125 Z M 9.484375 -3.359375 C 10.273438 -3.359375 10.988281 -3.546875 11.625 -3.921875 C 12.269531 -4.296875 12.78125 -4.820312 13.15625 -5.5 C 13.53125 -6.175781 13.71875 -6.957031 13.71875 -7.84375 C 13.71875 -8.726562 13.53125 -9.507812 13.15625 -10.1875 C 12.78125 -10.863281 12.269531 -11.390625 11.625 -11.765625 C 10.988281 -12.140625 10.273438 -12.328125 9.484375 -12.328125 C 8.691406 -12.328125 7.972656 -12.140625 7.328125 -11.765625 C 6.679688 -11.390625 6.171875 -10.863281 5.796875 -10.1875 C 5.429688 -9.507812 5.25 -8.726562 5.25 -7.84375 C 5.25 -6.957031 5.429688 -6.175781 5.796875 -5.5 C 6.171875 -4.820312 6.679688 -4.296875 7.328125 -3.921875 C 7.972656 -3.546875 8.691406 -3.359375 9.484375 -3.359375 Z M 9.484375 -3.359375 "/></g></g></g><g fill="#ffffff" fill-opacity="1"><g transform="translate(40.080635, 44.056853)"><g><path d="M 1.5625 -15.6875 L 6 -15.6875 L 6 -3.515625 L 13.484375 -3.515625 L 13.484375 0 L 1.5625 0 Z M 1.5625 -15.6875 "/></g></g></g><g fill="#ffffff" fill-opacity="1"><g transform="translate(55.696235, 44.056853)"><g><path d="M 1.5625 -15.6875 L 8.984375 -15.6875 C 10.703125 -15.6875 12.222656 -15.363281 13.546875 -14.71875 C 14.878906 -14.070312 15.910156 -13.160156 16.640625 -11.984375 C 17.378906 -10.804688 17.75 -9.425781 17.75 -7.84375 C 17.75 -6.257812 17.378906 -4.875 16.640625 -3.6875 C 15.910156 -2.507812 14.878906 -1.597656 13.546875 -0.953125 C 12.222656 -0.316406 10.703125 0 8.984375 0 L 1.5625 0 Z M 8.8125 -3.546875 C 10.15625 -3.546875 11.234375 -3.925781 12.046875 -4.6875 C 12.859375 -5.445312 13.265625 -6.5 13.265625 -7.84375 C 13.265625 -9.1875 12.859375 -10.238281 12.046875 -11 C 11.234375 -11.757812 10.15625 -12.140625 8.8125 -12.140625 L 6 -12.140625 L 6 -3.546875 Z M 8.8125 -3.546875 "/></g></g></g><g fill="#ffffff" fill-opacity="1"><g transform="translate(38.243608, 50.561813)"><g><path d="M 1.53125 0.046875 C 1.269531 0.046875 1.015625 0.00390625 0.765625 -0.078125 C 0.523438 -0.160156 0.335938 -0.265625 0.203125 -0.390625 L 0.390625 -0.78125 C 0.515625 -0.664062 0.679688 -0.566406 0.890625 -0.484375 C 1.097656 -0.410156 1.3125 -0.375 1.53125 -0.375 C 1.820312 -0.375 2.035156 -0.421875 2.171875 -0.515625 C 2.316406 -0.617188 2.390625 -0.753906 2.390625 -0.921875 C 2.390625 -1.035156 2.347656 -1.128906 2.265625 -1.203125 C 2.191406 -1.273438 2.097656 -1.332031 1.984375 -1.375 C 1.867188 -1.414062 1.707031 -1.460938 1.5 -1.515625 C 1.238281 -1.578125 1.023438 -1.640625 0.859375 -1.703125 C 0.703125 -1.765625 0.566406 -1.859375 0.453125 -1.984375 C 0.335938 -2.117188 0.28125 -2.296875 0.28125 -2.515625 C 0.28125 -2.703125 0.328125 -2.867188 0.421875 -3.015625 C 0.523438 -3.160156 0.675781 -3.273438 0.875 -3.359375 C 1.070312 -3.453125 1.316406 -3.5 1.609375 -3.5 C 1.816406 -3.5 2.019531 -3.472656 2.21875 -3.421875 C 2.414062 -3.367188 2.585938 -3.296875 2.734375 -3.203125 L 2.5625 -2.796875 C 2.414062 -2.890625 2.257812 -2.957031 2.09375 -3 C 1.9375 -3.050781 1.773438 -3.078125 1.609375 -3.078125 C 1.328125 -3.078125 1.113281 -3.023438 0.96875 -2.921875 C 0.832031 -2.828125 0.765625 -2.695312 0.765625 -2.53125 C 0.765625 -2.414062 0.804688 -2.320312 0.890625 -2.25 C 0.972656 -2.175781 1.070312 -2.117188 1.1875 -2.078125 C 1.300781 -2.035156 1.460938 -1.988281 1.671875 -1.9375 C 1.929688 -1.875 2.140625 -1.8125 2.296875 -1.75 C 2.453125 -1.6875 2.585938 -1.585938 2.703125 -1.453125 C 2.816406 -1.328125 2.875 -1.160156 2.875 -0.953125 C 2.875 -0.765625 2.820312 -0.59375 2.71875 -0.4375 C 2.625 -0.289062 2.472656 -0.171875 2.265625 -0.078125 C 2.066406 0.00390625 1.820312 0.046875 1.53125 0.046875 Z M 1.53125 0.046875 "/></g></g></g><g fill="#ffffff" fill-opacity="1"><g transform="translate(42.552035, 50.561813)"><g><path d="M 1.203125 -3.03125 L 0.015625 -3.03125 L 0.015625 -3.46875 L 2.890625 -3.46875 L 2.890625 -3.03125 L 1.703125 -3.03125 L 1.703125 0 L 1.203125 0 Z M 1.203125 -3.03125 "/></g></g></g><g fill="#ffffff" fill-opacity="1"><g transform="translate(46.69192, 50.561813)"><g><path d="M 2.84375 0 L 2.09375 -1.0625 C 2 -1.0625 1.925781 -1.0625 1.875 -1.0625 L 1.015625 -1.0625 L 1.015625 0 L 0.515625 0 L 0.515625 -3.46875 L 1.875 -3.46875 C 2.320312 -3.46875 2.671875 -3.359375 2.921875 -3.140625 C 3.179688 -2.929688 3.3125 -2.640625 3.3125 -2.265625 C 3.3125 -1.992188 3.242188 -1.765625 3.109375 -1.578125 C 2.984375 -1.390625 2.800781 -1.25 2.5625 -1.15625 L 3.375 0 Z M 1.859375 -1.46875 C 2.171875 -1.46875 2.410156 -1.535156 2.578125 -1.671875 C 2.742188 -1.804688 2.828125 -2.003906 2.828125 -2.265625 C 2.828125 -2.515625 2.742188 -2.703125 2.578125 -2.828125 C 2.410156 -2.960938 2.171875 -3.03125 1.859375 -3.03125 L 1.015625 -3.03125 L 1.015625 -1.46875 Z M 1.859375 -1.46875 "/></g></g></g><g fill="#ffffff" fill-opacity="1"><g transform="translate(51.525786, 50.561813)"><g><path d="M 2.734375 -0.859375 L 0.890625 -0.859375 L 0.5 0 L 0 0 L 1.5625 -3.46875 L 2.0625 -3.46875 L 3.625 0 L 3.109375 0 Z M 2.5625 -1.265625 L 1.8125 -2.96875 L 1.0625 -1.265625 Z M 2.5625 -1.265625 "/></g></g></g><g fill="#ffffff" fill-opacity="1"><g transform="translate(56.384437, 50.561813)"><g><path d="M 1.203125 -3.03125 L 0.015625 -3.03125 L 0.015625 -3.46875 L 2.890625 -3.46875 L 2.890625 -3.03125 L 1.703125 -3.03125 L 1.703125 0 L 1.203125 0 Z M 1.203125 -3.03125 "/></g></g></g><g fill="#ffffff" fill-opacity="1"><g transform="translate(60.524323, 50.561813)"><g><path d="M 3.03125 -0.4375 L 3.03125 0 L 0.515625 0 L 0.515625 -3.46875 L 2.96875 -3.46875 L 2.96875 -3.03125 L 1.015625 -3.03125 L 1.015625 -1.96875 L 2.75 -1.96875 L 2.75 -1.546875 L 1.015625 -1.546875 L 1.015625 -0.4375 Z M 3.03125 -0.4375 "/></g></g></g><g fill="#ffffff" fill-opacity="1"><g transform="translate(65.075642, 50.561813)"><g><path d="M 2.921875 -1.75 L 3.390625 -1.75 L 3.390625 -0.40625 C 3.222656 -0.257812 3.023438 -0.144531 2.796875 -0.0625 C 2.566406 0.0078125 2.328125 0.046875 2.078125 0.046875 C 1.734375 0.046875 1.421875 -0.03125 1.140625 -0.1875 C 0.859375 -0.34375 0.632812 -0.554688 0.46875 -0.828125 C 0.3125 -1.097656 0.234375 -1.398438 0.234375 -1.734375 C 0.234375 -2.066406 0.3125 -2.367188 0.46875 -2.640625 C 0.632812 -2.910156 0.859375 -3.117188 1.140625 -3.265625 C 1.421875 -3.421875 1.738281 -3.5 2.09375 -3.5 C 2.375 -3.5 2.625 -3.453125 2.84375 -3.359375 C 3.070312 -3.273438 3.265625 -3.144531 3.421875 -2.96875 L 3.125 -2.671875 C 2.84375 -2.929688 2.503906 -3.0625 2.109375 -3.0625 C 1.847656 -3.0625 1.613281 -3.003906 1.40625 -2.890625 C 1.195312 -2.773438 1.03125 -2.613281 0.90625 -2.40625 C 0.789062 -2.207031 0.734375 -1.984375 0.734375 -1.734375 C 0.734375 -1.484375 0.789062 -1.253906 0.90625 -1.046875 C 1.03125 -0.847656 1.195312 -0.691406 1.40625 -0.578125 C 1.613281 -0.460938 1.847656 -0.40625 2.109375 -0.40625 C 2.421875 -0.40625 2.691406 -0.476562 2.921875 -0.625 Z M 2.921875 -1.75 "/></g></g></g><g fill="#ffffff" fill-opacity="1"><g transform="translate(70.132575, 50.561813)"><g><path d="M 1.84375 -1.203125 L 1.84375 0 L 1.359375 0 L 1.359375 -1.203125 L -0.015625 -3.46875 L 0.515625 -3.46875 L 1.625 -1.640625 L 2.734375 -3.46875 L 3.21875 -3.46875 Z M 1.84375 -1.203125 "/></g></g></g></svg>