<svg xmlns="http://www.w3.org/2000/svg" xmlns:xlink="http://www.w3.org/1999/xlink" width="76" zoomAndPan="magnify" viewBox="0 0 56.879997 56.999997" height="76" preserveAspectRatio="xMidYMid meet" version="1.0"><defs><clipPath id="6c50141cae"><path d="M 39 4 L 56.761719 4 L 56.761719 10 L 39 10 Z M 39 4 " clip-rule="nonzero"/></clipPath><clipPath id="f96c6f761f"><path d="M 39 12 L 56.761719 12 L 56.761719 19 L 39 19 Z M 39 12 " clip-rule="nonzero"/></clipPath><clipPath id="e71aa91207"><path d="M 39 21 L 56.761719 21 L 56.761719 27 L 39 27 Z M 39 21 " clip-rule="nonzero"/></clipPath><clipPath id="d6ea858a29"><path d="M 24 40 L 30 40 L 30 56.191406 L 24 56.191406 Z M 24 40 " clip-rule="nonzero"/></clipPath><clipPath id="52d1c057b1"><path d="M 34 40 L 40 40 L 40 56.191406 L 34 56.191406 Z M 34 40 " clip-rule="nonzero"/></clipPath><clipPath id="4eb1f0cfb3"><path d="M 4 37 L 11 37 L 11 56.191406 L 4 56.191406 Z M 4 37 " clip-rule="nonzero"/></clipPath><clipPath id="b60b3357f0"><path d="M 14 32 L 20 32 L 20 56.191406 L 14 56.191406 Z M 14 32 " clip-rule="nonzero"/></clipPath><clipPath id="3237739985"><path d="M 46 44 L 56.761719 44 L 56.761719 55 L 46 55 Z M 46 44 " clip-rule="nonzero"/></clipPath><clipPath id="f8f6f72eb6"><path d="M 48 44 L 56.761719 44 L 56.761719 55 L 48 55 Z M 48 44 " clip-rule="nonzero"/></clipPath></defs><path fill="#60b7ff" d="M 23.0625 7.765625 C 23.566406 8.269531 24.015625 8.820312 24.414062 9.414062 C 24.808594 10.007812 25.144531 10.636719 25.417969 11.296875 C 25.691406 11.957031 25.898438 12.636719 26.035156 13.339844 C 26.175781 14.039062 26.246094 14.75 26.246094 15.464844 C 26.246094 16.179688 26.175781 16.886719 26.035156 17.585938 C 25.898438 18.289062 25.691406 18.96875 25.417969 19.628906 C 25.144531 20.289062 24.808594 20.917969 24.414062 21.511719 C 24.015625 22.105469 23.566406 22.65625 23.0625 23.160156 C 22.558594 23.667969 22.007812 24.117188 21.414062 24.515625 C 20.820312 24.914062 20.195312 25.25 19.535156 25.523438 C 18.875 25.796875 18.195312 26.003906 17.496094 26.140625 C 16.796875 26.28125 16.089844 26.351562 15.378906 26.351562 C 14.664062 26.351562 13.957031 26.28125 13.257812 26.140625 C 12.558594 26.003906 11.878906 25.796875 11.21875 25.523438 C 10.558594 25.25 9.933594 24.914062 9.339844 24.515625 C 8.746094 24.121094 8.195312 23.667969 7.691406 23.164062 C 7.1875 22.65625 6.738281 22.105469 6.339844 21.511719 C 5.945312 20.917969 5.609375 20.289062 5.335938 19.628906 C 5.0625 18.96875 4.859375 18.289062 4.71875 17.585938 C 4.578125 16.886719 4.507812 16.179688 4.507812 15.464844 C 4.507812 14.75 4.578125 14.039062 4.71875 13.339844 C 4.855469 12.636719 5.0625 11.957031 5.335938 11.296875 C 5.609375 10.636719 5.945312 10.007812 6.339844 9.414062 C 6.738281 8.820312 7.1875 8.269531 7.691406 7.765625 C 8.195312 7.257812 8.746094 6.808594 9.339844 6.410156 C 9.933594 6.011719 10.558594 5.675781 11.21875 5.402344 C 11.878906 5.128906 12.558594 4.925781 13.257812 4.785156 C 13.957031 4.644531 14.664062 4.574219 15.375 4.574219 C 16.089844 4.574219 16.796875 4.644531 17.496094 4.785156 C 18.195312 4.921875 18.875 5.128906 19.535156 5.402344 C 20.195312 5.675781 20.820312 6.011719 21.414062 6.410156 C 22.007812 6.808594 22.558594 7.257812 23.0625 7.765625 Z M 23.0625 7.765625 " fill-opacity="1" fill-rule="nonzero"/><path fill="#8ac9fe" d="M 24.894531 15.464844 C 24.894531 16.089844 24.832031 16.710938 24.710938 17.324219 C 24.589844 17.9375 24.410156 18.535156 24.171875 19.113281 C 23.929688 19.691406 23.636719 20.238281 23.289062 20.761719 C 22.941406 21.28125 22.546875 21.761719 22.105469 22.207031 C 21.664062 22.648438 21.183594 23.042969 20.664062 23.390625 C 20.144531 23.738281 19.597656 24.03125 19.019531 24.273438 C 18.441406 24.511719 17.847656 24.691406 17.234375 24.816406 C 16.621094 24.9375 16.003906 25 15.378906 25 C 14.753906 25 14.132812 24.9375 13.519531 24.816406 C 12.90625 24.691406 12.3125 24.511719 11.734375 24.273438 C 11.15625 24.03125 10.609375 23.738281 10.089844 23.390625 C 9.570312 23.042969 9.089844 22.648438 8.648438 22.207031 C 8.207031 21.761719 7.8125 21.28125 7.464844 20.761719 C 7.117188 20.238281 6.824219 19.691406 6.585938 19.113281 C 6.34375 18.535156 6.164062 17.9375 6.042969 17.324219 C 5.921875 16.710938 5.859375 16.089844 5.859375 15.464844 C 5.859375 14.835938 5.921875 14.21875 6.042969 13.601562 C 6.164062 12.988281 6.34375 12.394531 6.585938 11.8125 C 6.824219 11.234375 7.117188 10.6875 7.464844 10.164062 C 7.8125 9.644531 8.207031 9.164062 8.648438 8.722656 C 9.089844 8.277344 9.570312 7.882812 10.089844 7.535156 C 10.609375 7.1875 11.15625 6.894531 11.734375 6.652344 C 12.3125 6.414062 12.90625 6.234375 13.519531 6.109375 C 14.132812 5.988281 14.753906 5.929688 15.378906 5.929688 C 16.003906 5.929688 16.621094 5.988281 17.234375 6.109375 C 17.847656 6.234375 18.441406 6.414062 19.019531 6.652344 C 19.597656 6.894531 20.144531 7.1875 20.664062 7.535156 C 21.183594 7.882812 21.664062 8.277344 22.105469 8.722656 C 22.546875 9.164062 22.941406 9.644531 23.289062 10.164062 C 23.636719 10.6875 23.929688 11.234375 24.171875 11.8125 C 24.410156 12.394531 24.589844 12.988281 24.710938 13.601562 C 24.832031 14.21875 24.894531 14.835938 24.894531 15.464844 Z M 24.894531 15.464844 " fill-opacity="1" fill-rule="nonzero"/><path fill="#fd4755" d="M 15.378906 15.464844 L 26.246094 15.464844 C 26.246094 19.492188 24.058594 23.011719 20.8125 24.894531 Z M 15.378906 15.464844 " fill-opacity="1" fill-rule="evenodd"/><path fill="#fe646f" d="M 15.378906 15.464844 L 24.894531 15.464844 C 24.894531 18.992188 22.980469 22.074219 20.136719 23.722656 Z M 15.378906 15.464844 " fill-opacity="1" fill-rule="evenodd"/><path fill="#ffd064" d="M 26.246094 15.464844 L 15.378906 15.464844 L 15.378906 4.574219 C 21.378906 4.574219 26.246094 9.449219 26.246094 15.464844 Z M 26.246094 15.464844 " fill-opacity="1" fill-rule="evenodd"/><path fill="#ffe177" d="M 24.894531 15.464844 L 15.378906 15.464844 L 15.378906 5.929688 C 20.632812 5.929688 24.894531 10.195312 24.894531 15.464844 Z M 24.894531 15.464844 " fill-opacity="1" fill-rule="evenodd"/><g clip-path="url(#6c50141cae)"><path fill="#a79ba7" d="M 39.960938 9.4375 C 39.5 9.4375 39.128906 9.066406 39.128906 8.605469 C 39.128906 8.148438 39.5 7.773438 39.960938 7.773438 L 48 7.773438 C 48.457031 7.773438 48.828125 8.148438 48.828125 8.605469 C 48.828125 9.066406 48.457031 9.4375 48 9.4375 Z M 39.960938 5.953125 C 39.5 5.953125 39.128906 5.582031 39.128906 5.121094 C 39.128906 4.660156 39.5 4.289062 39.960938 4.289062 L 56.039062 4.289062 C 56.496094 4.289062 56.867188 4.660156 56.867188 5.121094 C 56.867188 5.582031 56.496094 5.953125 56.039062 5.953125 Z M 39.960938 5.953125 " fill-opacity="1" fill-rule="evenodd"/></g><path fill="#8ac9fe" d="M 32.5625 4.289062 L 35.363281 4.289062 C 36.007812 4.289062 36.53125 4.8125 36.53125 5.460938 L 36.53125 8.265625 C 36.53125 8.914062 36.007812 9.4375 35.363281 9.4375 L 32.5625 9.4375 C 31.917969 9.4375 31.390625 8.914062 31.390625 8.265625 L 31.390625 5.460938 C 31.390625 4.8125 31.917969 4.289062 32.5625 4.289062 Z M 32.5625 4.289062 " fill-opacity="1" fill-rule="evenodd"/><g clip-path="url(#f96c6f761f)"><path fill="#a79ba7" d="M 39.960938 18.039062 C 39.5 18.039062 39.128906 17.667969 39.128906 17.207031 C 39.128906 16.746094 39.5 16.375 39.960938 16.375 L 48 16.375 C 48.457031 16.375 48.828125 16.746094 48.828125 17.207031 C 48.828125 17.667969 48.457031 18.039062 48 18.039062 Z M 39.960938 14.550781 C 39.5 14.550781 39.128906 14.179688 39.128906 13.71875 C 39.128906 13.261719 39.5 12.886719 39.960938 12.886719 L 56.039062 12.886719 C 56.496094 12.886719 56.867188 13.261719 56.867188 13.71875 C 56.867188 14.179688 56.496094 14.550781 56.039062 14.550781 Z M 39.960938 14.550781 " fill-opacity="1" fill-rule="evenodd"/></g><path fill="#ffe177" d="M 32.5625 12.886719 L 35.363281 12.886719 C 36.007812 12.886719 36.53125 13.414062 36.53125 14.058594 L 36.53125 16.867188 C 36.53125 17.511719 36.007812 18.039062 35.363281 18.039062 L 32.5625 18.039062 C 31.917969 18.039062 31.390625 17.511719 31.390625 16.867188 L 31.390625 14.058594 C 31.390625 13.414062 31.917969 12.886719 32.5625 12.886719 Z M 32.5625 12.886719 " fill-opacity="1" fill-rule="evenodd"/><g clip-path="url(#e71aa91207)"><path fill="#a79ba7" d="M 39.960938 26.640625 C 39.5 26.640625 39.128906 26.265625 39.128906 25.804688 C 39.128906 25.347656 39.5 24.972656 39.960938 24.972656 L 48 24.972656 C 48.457031 24.972656 48.828125 25.347656 48.828125 25.804688 C 48.828125 26.265625 48.457031 26.640625 48 26.640625 Z M 39.960938 23.152344 C 39.5 23.152344 39.128906 22.78125 39.128906 22.320312 C 39.128906 21.859375 39.5 21.488281 39.960938 21.488281 L 56.039062 21.488281 C 56.496094 21.488281 56.867188 21.859375 56.867188 22.320312 C 56.867188 22.78125 56.496094 23.152344 56.039062 23.152344 Z M 39.960938 23.152344 " fill-opacity="1" fill-rule="evenodd"/></g><path fill="#fe646f" d="M 32.5625 21.488281 L 35.363281 21.488281 C 36.007812 21.488281 36.53125 22.011719 36.53125 22.660156 L 36.53125 25.46875 C 36.53125 26.113281 36.007812 26.636719 35.363281 26.636719 L 32.5625 26.636719 C 31.917969 26.636719 31.390625 26.113281 31.390625 25.46875 L 31.390625 22.660156 C 31.390625 22.011719 31.917969 21.488281 32.5625 21.488281 Z M 32.5625 21.488281 " fill-opacity="1" fill-rule="evenodd"/><g clip-path="url(#d6ea858a29)"><path fill="#ffe177" d="M 25.183594 40 C 26.335938 40 27.484375 40 28.636719 40 C 29.207031 40 29.675781 40.46875 29.675781 41.039062 C 29.675781 45.746094 29.675781 50.453125 29.675781 55.160156 C 29.675781 55.734375 29.207031 56.199219 28.636719 56.199219 C 27.484375 56.199219 26.335938 56.199219 25.183594 56.199219 C 24.613281 56.199219 24.144531 55.734375 24.144531 55.160156 C 24.144531 50.453125 24.144531 45.746094 24.144531 41.039062 C 24.144531 40.46875 24.613281 40 25.183594 40 Z M 25.183594 40 " fill-opacity="1" fill-rule="evenodd"/><path fill="#ffd064" d="M 28.636719 40 C 29.207031 40 29.675781 40.46875 29.675781 41.039062 C 29.675781 45.746094 29.675781 50.453125 29.675781 55.160156 C 29.675781 55.734375 29.207031 56.199219 28.636719 56.199219 C 27.484375 56.199219 26.335938 56.199219 25.183594 56.199219 C 24.613281 56.199219 24.144531 55.734375 24.144531 55.160156 L 27.597656 55.160156 C 28.167969 55.160156 28.636719 54.691406 28.636719 54.117188 Z M 28.636719 40 " fill-opacity="1" fill-rule="evenodd"/></g><g clip-path="url(#52d1c057b1)"><path fill="#fe646f" d="M 35.21875 40 C 36.367188 40 37.519531 40 38.667969 40 C 39.242188 40 39.707031 40.46875 39.707031 41.039062 C 39.707031 45.746094 39.707031 50.453125 39.707031 55.160156 C 39.707031 55.734375 39.242188 56.199219 38.667969 56.199219 C 37.519531 56.199219 36.367188 56.199219 35.21875 56.199219 C 34.644531 56.199219 34.179688 55.734375 34.179688 55.160156 C 34.179688 50.453125 34.179688 45.746094 34.179688 41.039062 C 34.179688 40.46875 34.644531 40 35.21875 40 Z M 35.21875 40 " fill-opacity="1" fill-rule="evenodd"/><path fill="#fd4755" d="M 38.667969 40 C 39.242188 40 39.707031 40.46875 39.707031 41.039062 C 39.707031 45.746094 39.707031 50.453125 39.707031 55.160156 C 39.707031 55.734375 39.242188 56.199219 38.667969 56.199219 C 37.519531 56.199219 36.367188 56.199219 35.21875 56.199219 C 34.644531 56.199219 34.179688 55.734375 34.179688 55.160156 L 37.628906 55.160156 C 38.203125 55.160156 38.667969 54.691406 38.667969 54.117188 Z M 38.667969 40 " fill-opacity="1" fill-rule="evenodd"/></g><g clip-path="url(#4eb1f0cfb3)"><path fill="#6cf5c2" d="M 5.546875 37.191406 C 6.699219 37.191406 7.847656 37.191406 9 37.191406 C 9.570312 37.191406 10.039062 37.65625 10.039062 38.230469 C 10.039062 43.875 10.039062 49.515625 10.039062 55.160156 C 10.039062 55.734375 9.570312 56.199219 9 56.199219 C 7.847656 56.199219 6.699219 56.199219 5.546875 56.199219 C 4.976562 56.199219 4.507812 55.734375 4.507812 55.160156 C 4.507812 49.515625 4.507812 43.875 4.507812 38.230469 C 4.507812 37.65625 4.976562 37.191406 5.546875 37.191406 Z M 5.546875 37.191406 " fill-opacity="1" fill-rule="evenodd"/><path fill="#00e499" d="M 9 37.191406 C 9.570312 37.191406 10.039062 37.65625 10.039062 38.230469 C 10.039062 43.875 10.039062 49.515625 10.039062 55.160156 C 10.039062 55.734375 9.570312 56.199219 9 56.199219 C 7.847656 56.199219 6.699219 56.199219 5.546875 56.199219 C 4.976562 56.199219 4.507812 55.734375 4.507812 55.160156 L 7.960938 55.160156 C 8.53125 55.160156 9 54.691406 9 54.117188 Z M 9 37.191406 " fill-opacity="1" fill-rule="evenodd"/></g><g clip-path="url(#b60b3357f0)"><path fill="#8ac9fe" d="M 15.152344 32.328125 C 16.300781 32.328125 17.449219 32.328125 18.601562 32.328125 C 19.171875 32.328125 19.640625 32.796875 19.640625 33.371094 C 19.640625 40.632812 19.640625 47.894531 19.640625 55.160156 C 19.640625 55.734375 19.171875 56.199219 18.601562 56.199219 C 17.449219 56.199219 16.300781 56.199219 15.152344 56.199219 C 14.578125 56.199219 14.113281 55.734375 14.113281 55.160156 C 14.113281 47.894531 14.113281 40.632812 14.113281 33.371094 C 14.113281 32.796875 14.578125 32.328125 15.152344 32.328125 Z M 15.152344 32.328125 " fill-opacity="1" fill-rule="evenodd"/><path fill="#60b7ff" d="M 18.601562 32.328125 C 19.171875 32.328125 19.640625 32.796875 19.640625 33.371094 C 19.640625 40.632812 19.640625 47.894531 19.640625 55.160156 C 19.640625 55.734375 19.171875 56.199219 18.601562 56.199219 C 17.449219 56.199219 16.300781 56.199219 15.152344 56.199219 C 14.578125 56.199219 14.113281 55.734375 14.113281 55.160156 L 17.5625 55.160156 C 18.136719 55.160156 18.601562 54.691406 18.601562 54.117188 Z M 18.601562 32.328125 " fill-opacity="1" fill-rule="evenodd"/></g><path fill="#a79ba7" d="M 44.265625 40.675781 C 43.75 41.417969 43.136719 42.089844 42.453125 42.679688 L 47.390625 47.527344 L 49.269531 45.585938 Z M 44.265625 40.675781 " fill-opacity="1" fill-rule="evenodd"/><path fill="#837683" d="M 44.300781 40.644531 C 44.203125 40.960938 44.023438 41.203125 43.761719 41.363281 L 48.667969 46.246094 L 49.269531 45.585938 Z M 44.300781 40.644531 " fill-opacity="1" fill-rule="evenodd"/><g clip-path="url(#3237739985)"><path fill="#f1ba84" d="M 53.640625 53.824219 L 55.765625 51.632812 C 56.136719 51.25 56.128906 50.628906 55.742188 50.253906 L 49.867188 44.542969 C 49.484375 44.167969 48.863281 44.179688 48.492188 44.5625 L 46.371094 46.753906 C 45.996094 47.136719 46.007812 47.757812 46.390625 48.132812 L 52.265625 53.84375 C 52.652344 54.21875 53.269531 54.207031 53.640625 53.824219 Z M 53.640625 53.824219 " fill-opacity="1" fill-rule="evenodd"/></g><g clip-path="url(#f8f6f72eb6)"><path fill="#e3a76f" d="M 48.996094 44.542969 L 54.875 50.253906 C 55.257812 50.628906 55.265625 51.25 54.894531 51.632812 L 52.773438 53.824219 C 52.695312 53.90625 52.605469 53.96875 52.507812 54.015625 C 52.878906 54.199219 53.339844 54.136719 53.644531 53.824219 L 55.765625 51.632812 C 56.136719 51.25 56.128906 50.628906 55.742188 50.253906 L 49.867188 44.542969 C 49.5625 44.246094 49.113281 44.191406 48.753906 44.371094 C 48.84375 44.414062 48.925781 44.46875 48.996094 44.542969 Z M 48.996094 44.542969 " fill-opacity="1" fill-rule="evenodd"/></g><path fill="#eceff1" d="M 43.816406 27.699219 C 44.3125 28.195312 44.753906 28.738281 45.144531 29.324219 C 45.535156 29.90625 45.867188 30.527344 46.132812 31.175781 C 46.402344 31.828125 46.605469 32.496094 46.742188 33.1875 C 46.878906 33.878906 46.949219 34.574219 46.949219 35.277344 C 46.949219 35.984375 46.878906 36.679688 46.742188 37.371094 C 46.605469 38.0625 46.402344 38.730469 46.132812 39.382812 C 45.867188 40.03125 45.535156 40.648438 45.144531 41.234375 C 44.753906 41.820312 44.3125 42.363281 43.816406 42.859375 C 43.316406 43.359375 42.777344 43.800781 42.191406 44.191406 C 41.609375 44.585938 40.992188 44.914062 40.34375 45.183594 C 39.695312 45.453125 39.023438 45.65625 38.335938 45.792969 C 37.648438 45.929688 36.949219 46 36.25 46 C 35.546875 46 34.851562 45.929688 34.160156 45.792969 C 33.472656 45.65625 32.800781 45.453125 32.152344 45.183594 C 31.503906 44.914062 30.886719 44.585938 30.304688 44.191406 C 29.71875 43.800781 29.179688 43.359375 28.683594 42.859375 C 28.183594 42.363281 27.742188 41.820312 27.351562 41.234375 C 26.960938 40.648438 26.632812 40.03125 26.363281 39.382812 C 26.09375 38.730469 25.890625 38.0625 25.753906 37.371094 C 25.617188 36.679688 25.546875 35.984375 25.546875 35.28125 C 25.546875 34.574219 25.617188 33.878906 25.753906 33.1875 C 25.890625 32.496094 26.09375 31.828125 26.363281 31.175781 C 26.628906 30.527344 26.960938 29.910156 27.351562 29.324219 C 27.742188 28.738281 28.183594 28.195312 28.679688 27.699219 C 29.179688 27.199219 29.71875 26.757812 30.304688 26.363281 C 30.886719 25.972656 31.503906 25.644531 32.152344 25.375 C 32.800781 25.105469 33.472656 24.902344 34.160156 24.765625 C 34.847656 24.628906 35.546875 24.558594 36.246094 24.558594 C 36.949219 24.558594 37.644531 24.625 38.335938 24.765625 C 39.023438 24.902344 39.695312 25.105469 40.34375 25.375 C 40.992188 25.644531 41.609375 25.972656 42.191406 26.363281 C 42.777344 26.757812 43.316406 27.199219 43.816406 27.699219 Z M 43.816406 27.699219 " fill-opacity="1" fill-rule="nonzero"/><path fill="#d1d1d6" d="M 36.25 24.558594 C 42.160156 24.558594 46.949219 29.359375 46.949219 35.277344 C 46.949219 41.199219 42.160156 46 36.25 46 C 36.074219 46 35.902344 45.996094 35.730469 45.988281 C 41.398438 45.714844 45.910156 41.027344 45.910156 35.277344 C 45.910156 29.53125 41.398438 24.84375 35.730469 24.570312 C 35.902344 24.5625 36.074219 24.558594 36.25 24.558594 Z M 36.25 24.558594 " fill-opacity="1" fill-rule="evenodd"/><path fill="#837683" d="M 44.039062 35.277344 C 44.039062 35.792969 43.988281 36.300781 43.890625 36.800781 C 43.789062 37.304688 43.644531 37.792969 43.445312 38.265625 C 43.25 38.738281 43.011719 39.191406 42.726562 39.617188 C 42.441406 40.042969 42.121094 40.4375 41.757812 40.796875 C 41.394531 41.160156 41.003906 41.484375 40.578125 41.769531 C 40.152344 42.054688 39.703125 42.292969 39.230469 42.492188 C 38.757812 42.6875 38.269531 42.835938 37.769531 42.933594 C 37.265625 43.035156 36.761719 43.085938 36.25 43.085938 C 35.738281 43.085938 35.230469 43.035156 34.726562 42.933594 C 34.226562 42.835938 33.738281 42.6875 33.265625 42.492188 C 32.792969 42.292969 32.34375 42.054688 31.917969 41.769531 C 31.496094 41.484375 31.101562 41.160156 30.738281 40.796875 C 30.378906 40.4375 30.054688 40.042969 29.769531 39.617188 C 29.484375 39.191406 29.246094 38.738281 29.050781 38.265625 C 28.855469 37.792969 28.707031 37.304688 28.605469 36.800781 C 28.507812 36.300781 28.457031 35.792969 28.457031 35.277344 C 28.457031 34.765625 28.507812 34.257812 28.605469 33.757812 C 28.707031 33.253906 28.855469 32.765625 29.050781 32.292969 C 29.246094 31.816406 29.484375 31.367188 29.769531 30.941406 C 30.054688 30.515625 30.378906 30.121094 30.738281 29.757812 C 31.101562 29.398438 31.496094 29.074219 31.917969 28.789062 C 32.34375 28.503906 32.792969 28.261719 33.265625 28.066406 C 33.738281 27.871094 34.226562 27.722656 34.726562 27.621094 C 35.230469 27.523438 35.738281 27.472656 36.25 27.472656 C 36.761719 27.472656 37.265625 27.523438 37.769531 27.621094 C 38.269531 27.722656 38.757812 27.871094 39.230469 28.066406 C 39.703125 28.261719 40.152344 28.503906 40.578125 28.789062 C 41.003906 29.074219 41.394531 29.398438 41.757812 29.757812 C 42.121094 30.121094 42.441406 30.515625 42.726562 30.941406 C 43.011719 31.367188 43.25 31.816406 43.445312 32.292969 C 43.644531 32.765625 43.789062 33.253906 43.890625 33.757812 C 43.988281 34.257812 44.039062 34.765625 44.039062 35.277344 Z M 44.039062 35.277344 " fill-opacity="1" fill-rule="nonzero"/><path fill="#685e68" d="M 42.65625 35.277344 C 42.65625 36.875 42.175781 38.359375 41.355469 39.597656 C 41.039062 40.074219 40.671875 40.515625 40.257812 40.910156 C 39.015625 42.105469 37.375 42.894531 35.554688 43.054688 C 35.785156 43.074219 36.015625 43.085938 36.25 43.085938 C 36.628906 43.085938 37 43.058594 37.363281 43.003906 C 37.410156 43 37.457031 42.992188 37.503906 42.984375 C 41.210938 42.382812 44.039062 39.160156 44.039062 35.277344 C 44.039062 30.96875 40.550781 27.472656 36.25 27.472656 C 36.015625 27.472656 35.785156 27.484375 35.554688 27.503906 C 39.535156 27.855469 42.65625 31.203125 42.65625 35.277344 Z M 42.65625 35.277344 " fill-opacity="1" fill-rule="evenodd"/><path fill="#8ac9fe" d="M 36.25 36.03125 C 33.441406 36.03125 31.132812 38.164062 30.839844 40.898438 C 32.238281 42.25 34.148438 43.085938 36.25 43.085938 C 36.628906 43.085938 37 43.058594 37.363281 43.003906 C 39.019531 42.769531 40.507812 42.007812 41.65625 40.894531 C 41.367188 38.160156 39.054688 36.03125 36.25 36.03125 Z M 36.25 36.03125 " fill-opacity="1" fill-rule="evenodd"/><path fill="#60b7ff" d="M 35.554688 36.074219 C 38.792969 36.488281 40.101562 38.941406 40.398438 41.886719 C 40.851562 41.597656 41.273438 41.265625 41.65625 40.894531 C 41.367188 38.160156 39.054688 36.03125 36.25 36.03125 C 36.015625 36.03125 35.78125 36.046875 35.554688 36.074219 Z M 35.554688 36.074219 " fill-opacity="1" fill-rule="evenodd"/><path fill="#f6dccd" d="M 39 32.863281 C 39 33.230469 38.929688 33.582031 38.789062 33.917969 C 38.652344 34.257812 38.453125 34.554688 38.195312 34.8125 C 37.9375 35.070312 37.636719 35.269531 37.300781 35.410156 C 36.964844 35.550781 36.613281 35.621094 36.25 35.621094 C 35.882812 35.621094 35.53125 35.550781 35.195312 35.410156 C 34.859375 35.269531 34.5625 35.070312 34.304688 34.8125 C 34.046875 34.554688 33.847656 34.257812 33.707031 33.917969 C 33.566406 33.582031 33.496094 33.230469 33.496094 32.863281 C 33.496094 32.496094 33.566406 32.144531 33.707031 31.808594 C 33.847656 31.472656 34.046875 31.171875 34.304688 30.914062 C 34.5625 30.65625 34.859375 30.457031 35.195312 30.316406 C 35.53125 30.175781 35.882812 30.105469 36.25 30.105469 C 36.613281 30.105469 36.964844 30.175781 37.300781 30.316406 C 37.636719 30.457031 37.9375 30.65625 38.195312 30.914062 C 38.453125 31.171875 38.652344 31.472656 38.789062 31.808594 C 38.929688 32.144531 39 32.496094 39 32.863281 Z M 39 32.863281 " fill-opacity="1" fill-rule="nonzero"/><path fill="#f1cbbc" d="M 38.308594 32.863281 C 38.308594 34.269531 37.257812 35.425781 35.902344 35.597656 C 36.015625 35.613281 36.132812 35.621094 36.25 35.621094 C 37.769531 35.621094 39 34.386719 39 32.863281 C 39 31.339844 37.769531 30.105469 36.25 30.105469 C 36.132812 30.105469 36.015625 30.113281 35.902344 30.128906 C 37.257812 30.300781 38.308594 31.457031 38.308594 32.863281 Z M 38.308594 32.863281 " fill-opacity="1" fill-rule="evenodd"/></svg>