<svg xmlns="http://www.w3.org/2000/svg" xmlns:xlink="http://www.w3.org/1999/xlink" width="92" zoomAndPan="magnify" viewBox="0 0 69 56.999997" height="76" preserveAspectRatio="xMidYMid meet" version="1.0"><defs><clipPath id="5b8a0d4241"><path d="M 47 15 L 68.25 15 L 68.25 37 L 47 37 Z M 47 15 " clip-rule="nonzero"/></clipPath><clipPath id="116661e606"><path d="M 0 4 L 68.25 4 L 68.25 57 L 0 57 Z M 0 4 " clip-rule="nonzero"/></clipPath></defs><path fill="#12baab" d="M 7.042969 11.121094 L 61.207031 11.121094 L 61.207031 17.304688 L 63.527344 17.304688 L 63.527344 0 L 4.722656 0 L 4.722656 17.304688 L 7.042969 17.304688 Z M 61.207031 2.332031 L 61.207031 8.789062 L 39.773438 8.789062 C 37.878906 8.789062 36.117188 7.84375 35.078125 6.253906 L 33.332031 3.59375 C 33.171875 3.332031 32.980469 3.085938 32.789062 2.851562 C 32.734375 2.785156 32.664062 2.714844 32.609375 2.644531 C 32.515625 2.535156 32.433594 2.441406 32.335938 2.332031 Z M 7.042969 2.332031 L 26.6875 2.332031 C 28.585938 2.332031 30.34375 3.277344 31.382812 4.867188 L 33.144531 7.542969 C 33.304688 7.800781 33.496094 8.050781 33.6875 8.28125 C 33.742188 8.351562 33.8125 8.417969 33.867188 8.488281 C 33.960938 8.597656 34.042969 8.691406 34.136719 8.804688 L 7.042969 8.804688 Z M 7.042969 2.332031 " fill-opacity="1" fill-rule="nonzero"/><path fill="#12baab" d="M 61.207031 41.738281 L 7.042969 41.738281 L 7.042969 34.9375 L 4.722656 34.9375 L 4.722656 44.070312 L 63.527344 44.070312 L 63.527344 34.9375 L 61.207031 34.9375 Z M 61.207031 41.738281 " fill-opacity="1" fill-rule="nonzero"/><g clip-path="url(#5b8a0d4241)"><path fill="#12baab" d="M 67.117188 15.933594 L 49.09375 15.933594 C 48.476562 15.933594 47.972656 16.441406 47.972656 17.058594 L 47.972656 35.171875 C 47.972656 35.789062 48.476562 36.296875 49.09375 36.296875 L 67.117188 36.296875 C 67.730469 36.296875 68.234375 35.789062 68.234375 35.171875 L 68.234375 17.070312 C 68.234375 16.441406 67.730469 15.933594 67.117188 15.933594 Z M 62.394531 27.09375 L 61.207031 27.78125 L 56.050781 30.769531 C 55.300781 31.207031 54.371094 30.660156 54.371094 29.796875 L 54.371094 22.433594 C 54.371094 21.570312 55.300781 21.019531 56.050781 21.457031 L 61.207031 24.449219 L 62.394531 25.132812 C 63.144531 25.585938 63.144531 26.667969 62.394531 27.09375 Z M 62.394531 27.09375 " fill-opacity="1" fill-rule="nonzero"/></g><path fill="#12baab" d="M 19.15625 36.308594 C 19.773438 36.308594 20.277344 35.800781 20.277344 35.183594 L 20.277344 17.070312 C 20.277344 16.453125 19.773438 15.945312 19.15625 15.945312 L 1.132812 15.945312 C 0.519531 15.945312 0.015625 16.453125 0.015625 17.070312 L 0.015625 35.183594 C 0.015625 35.800781 0.519531 36.308594 1.132812 36.308594 Z M 4.722656 33.183594 C 4.011719 32.839844 3.523438 32.113281 3.523438 31.277344 C 3.523438 30.441406 4.011719 29.714844 4.722656 29.371094 C 4.996094 29.234375 5.308594 29.164062 5.621094 29.164062 C 5.773438 29.164062 5.910156 29.179688 6.058594 29.207031 L 6.058594 21.964844 C 6.058594 21.582031 6.320312 21.238281 6.699219 21.144531 L 7.054688 21.0625 L 14.640625 19.167969 C 14.886719 19.113281 15.160156 19.167969 15.363281 19.320312 C 15.570312 19.484375 15.691406 19.730469 15.691406 19.992188 L 15.691406 29.273438 C 15.691406 29.34375 15.679688 29.410156 15.664062 29.464844 C 15.582031 30.550781 14.683594 31.414062 13.578125 31.414062 C 12.417969 31.414062 11.476562 30.46875 11.476562 29.300781 C 11.476562 28.136719 12.417969 27.191406 13.578125 27.191406 C 13.726562 27.191406 13.863281 27.203125 14.015625 27.230469 L 14.015625 23.75 L 7.765625 25.3125 L 7.765625 31.261719 C 7.765625 31.332031 7.75 31.398438 7.738281 31.453125 C 7.695312 32.003906 7.453125 32.484375 7.070312 32.839844 C 6.699219 33.183594 6.195312 33.402344 5.648438 33.402344 C 5.296875 33.386719 4.996094 33.304688 4.722656 33.183594 Z M 4.722656 33.183594 " fill-opacity="1" fill-rule="nonzero"/><path fill="#12baab" d="M 13.988281 21.0625 L 7.738281 22.625 L 7.738281 23.558594 L 13.988281 21.992188 Z M 13.988281 21.0625 " fill-opacity="1" fill-rule="nonzero"/><path fill="#12baab" d="M 20.332031 4.238281 C 19.609375 4.238281 19.019531 4.828125 19.019531 5.554688 C 19.019531 6.28125 19.609375 6.871094 20.332031 6.871094 C 21.054688 6.871094 21.640625 6.28125 21.640625 5.554688 C 21.640625 4.828125 21.054688 4.238281 20.332031 4.238281 Z M 61.207031 36.308594 L 61.207031 41.738281 L 7.042969 41.738281 L 7.042969 36.308594 L 4.722656 36.308594 L 4.722656 44.070312 L 63.527344 44.070312 L 63.527344 36.308594 Z M 20.332031 4.238281 C 19.609375 4.238281 19.019531 4.828125 19.019531 5.554688 C 19.019531 6.28125 19.609375 6.871094 20.332031 6.871094 C 21.054688 6.871094 21.640625 6.28125 21.640625 5.554688 C 21.640625 4.828125 21.054688 4.238281 20.332031 4.238281 Z M 20.332031 4.238281 C 19.609375 4.238281 19.019531 4.828125 19.019531 5.554688 C 19.019531 6.28125 19.609375 6.871094 20.332031 6.871094 C 21.054688 6.871094 21.640625 6.28125 21.640625 5.554688 C 21.640625 4.828125 21.054688 4.238281 20.332031 4.238281 Z M 20.332031 4.238281 C 19.609375 4.238281 19.019531 4.828125 19.019531 5.554688 C 19.019531 6.28125 19.609375 6.871094 20.332031 6.871094 C 21.054688 6.871094 21.640625 6.28125 21.640625 5.554688 C 21.640625 4.828125 21.054688 4.238281 20.332031 4.238281 Z M 20.332031 4.238281 C 19.609375 4.238281 19.019531 4.828125 19.019531 5.554688 C 19.019531 6.28125 19.609375 6.871094 20.332031 6.871094 C 21.054688 6.871094 21.640625 6.28125 21.640625 5.554688 C 21.640625 4.828125 21.054688 4.238281 20.332031 4.238281 Z M 20.332031 4.238281 C 19.609375 4.238281 19.019531 4.828125 19.019531 5.554688 C 19.019531 6.28125 19.609375 6.871094 20.332031 6.871094 C 21.054688 6.871094 21.640625 6.28125 21.640625 5.554688 C 21.640625 4.828125 21.054688 4.238281 20.332031 4.238281 Z M 20.332031 4.238281 C 19.609375 4.238281 19.019531 4.828125 19.019531 5.554688 C 19.019531 6.28125 19.609375 6.871094 20.332031 6.871094 C 21.054688 6.871094 21.640625 6.28125 21.640625 5.554688 C 21.640625 4.828125 21.054688 4.238281 20.332031 4.238281 Z M 20.332031 4.238281 C 19.609375 4.238281 19.019531 4.828125 19.019531 5.554688 C 19.019531 6.28125 19.609375 6.871094 20.332031 6.871094 C 21.054688 6.871094 21.640625 6.28125 21.640625 5.554688 C 21.640625 4.828125 21.054688 4.238281 20.332031 4.238281 Z M 20.332031 4.238281 C 19.609375 4.238281 19.019531 4.828125 19.019531 5.554688 C 19.019531 6.28125 19.609375 6.871094 20.332031 6.871094 C 21.054688 6.871094 21.640625 6.28125 21.640625 5.554688 C 21.640625 4.828125 21.054688 4.238281 20.332031 4.238281 Z M 20.332031 4.238281 C 19.609375 4.238281 19.019531 4.828125 19.019531 5.554688 C 19.019531 6.28125 19.609375 6.871094 20.332031 6.871094 C 21.054688 6.871094 21.640625 6.28125 21.640625 5.554688 C 21.640625 4.828125 21.054688 4.238281 20.332031 4.238281 Z M 4.722656 0 L 4.722656 15.933594 L 7.042969 15.933594 L 7.042969 11.121094 L 61.207031 11.121094 L 61.207031 15.933594 L 63.527344 15.933594 L 63.527344 0 Z M 7.042969 8.804688 L 7.042969 2.332031 L 26.6875 2.332031 C 28.585938 2.332031 30.34375 3.277344 31.382812 4.867188 L 33.144531 7.542969 C 33.304688 7.800781 33.496094 8.050781 33.6875 8.28125 C 33.742188 8.351562 33.8125 8.417969 33.867188 8.488281 C 33.960938 8.597656 34.042969 8.691406 34.136719 8.804688 C 34.136719 8.804688 7.042969 8.804688 7.042969 8.804688 Z M 61.207031 8.789062 L 39.773438 8.789062 C 37.878906 8.789062 36.117188 7.84375 35.078125 6.253906 L 33.332031 3.59375 C 33.171875 3.332031 32.980469 3.085938 32.789062 2.851562 C 32.734375 2.785156 32.664062 2.714844 32.609375 2.644531 C 32.515625 2.535156 32.433594 2.441406 32.335938 2.332031 L 61.207031 2.332031 Z M 20.332031 4.238281 C 19.609375 4.238281 19.019531 4.828125 19.019531 5.554688 C 19.019531 6.28125 19.609375 6.871094 20.332031 6.871094 C 21.054688 6.871094 21.640625 6.28125 21.640625 5.554688 C 21.640625 4.828125 21.054688 4.238281 20.332031 4.238281 Z M 20.332031 4.238281 C 19.609375 4.238281 19.019531 4.828125 19.019531 5.554688 C 19.019531 6.28125 19.609375 6.871094 20.332031 6.871094 C 21.054688 6.871094 21.640625 6.28125 21.640625 5.554688 C 21.640625 4.828125 21.054688 4.238281 20.332031 4.238281 Z M 20.332031 4.238281 C 19.609375 4.238281 19.019531 4.828125 19.019531 5.554688 C 19.019531 6.28125 19.609375 6.871094 20.332031 6.871094 C 21.054688 6.871094 21.640625 6.28125 21.640625 5.554688 C 21.640625 4.828125 21.054688 4.238281 20.332031 4.238281 Z M 20.332031 4.238281 C 19.609375 4.238281 19.019531 4.828125 19.019531 5.554688 C 19.019531 6.28125 19.609375 6.871094 20.332031 6.871094 C 21.054688 6.871094 21.640625 6.28125 21.640625 5.554688 C 21.640625 4.828125 21.054688 4.238281 20.332031 4.238281 Z M 20.332031 4.238281 C 19.609375 4.238281 19.019531 4.828125 19.019531 5.554688 C 19.019531 6.28125 19.609375 6.871094 20.332031 6.871094 C 21.054688 6.871094 21.640625 6.28125 21.640625 5.554688 C 21.640625 4.828125 21.054688 4.238281 20.332031 4.238281 Z M 20.332031 4.238281 C 19.609375 4.238281 19.019531 4.828125 19.019531 5.554688 C 19.019531 6.28125 19.609375 6.871094 20.332031 6.871094 C 21.054688 6.871094 21.640625 6.28125 21.640625 5.554688 C 21.640625 4.828125 21.054688 4.238281 20.332031 4.238281 Z M 20.332031 4.238281 C 19.609375 4.238281 19.019531 4.828125 19.019531 5.554688 C 19.019531 6.28125 19.609375 6.871094 20.332031 6.871094 C 21.054688 6.871094 21.640625 6.28125 21.640625 5.554688 C 21.640625 4.828125 21.054688 4.238281 20.332031 4.238281 Z M 20.332031 4.238281 C 19.609375 4.238281 19.019531 4.828125 19.019531 5.554688 C 19.019531 6.28125 19.609375 6.871094 20.332031 6.871094 C 21.054688 6.871094 21.640625 6.28125 21.640625 5.554688 C 21.640625 4.828125 21.054688 4.238281 20.332031 4.238281 Z M 20.332031 4.238281 C 19.609375 4.238281 19.019531 4.828125 19.019531 5.554688 C 19.019531 6.28125 19.609375 6.871094 20.332031 6.871094 C 21.054688 6.871094 21.640625 6.28125 21.640625 5.554688 C 21.640625 4.828125 21.054688 4.238281 20.332031 4.238281 Z M 20.332031 4.238281 " fill-opacity="1" fill-rule="nonzero"/><g clip-path="url(#116661e606)"><path fill="#ffc200" d="M 7.738281 22.625 L 7.738281 23.558594 L 13.988281 21.992188 L 13.988281 21.0625 Z M 4.722656 29.371094 L 4.722656 15.933594 L 1.132812 15.933594 C 0.519531 15.933594 0.015625 16.441406 0.015625 17.058594 L 0.015625 35.171875 C 0.015625 35.789062 0.519531 36.296875 1.132812 36.296875 L 4.722656 36.296875 L 4.722656 33.167969 C 4.011719 32.839844 3.523438 32.113281 3.523438 31.277344 C 3.523438 30.441406 4.011719 29.714844 4.722656 29.371094 Z M 19.15625 15.945312 L 7.042969 15.945312 L 7.042969 21.0625 L 14.628906 19.167969 C 14.875 19.113281 15.144531 19.167969 15.351562 19.320312 C 15.554688 19.484375 15.679688 19.730469 15.679688 19.992188 L 15.679688 29.273438 C 15.679688 29.34375 15.664062 29.410156 15.652344 29.464844 C 15.570312 30.550781 14.667969 31.414062 13.5625 31.414062 C 12.402344 31.414062 11.460938 30.46875 11.460938 29.300781 C 11.460938 28.136719 12.402344 27.191406 13.5625 27.191406 C 13.714844 27.191406 13.851562 27.203125 14 27.230469 L 14 23.75 L 7.75 25.3125 L 7.75 31.261719 C 7.75 31.332031 7.738281 31.398438 7.722656 31.453125 C 7.683594 32.003906 7.4375 32.484375 7.054688 32.839844 L 7.054688 36.324219 L 19.171875 36.324219 C 19.785156 36.308594 20.277344 35.800781 20.277344 35.183594 L 20.277344 17.070312 C 20.277344 16.453125 19.773438 15.945312 19.15625 15.945312 Z M 56.050781 21.472656 L 61.207031 24.460938 L 61.207031 15.945312 L 49.09375 15.945312 C 48.464844 15.933594 47.972656 16.441406 47.972656 17.070312 L 47.972656 35.183594 C 47.972656 35.800781 48.476562 36.308594 49.09375 36.308594 L 61.207031 36.308594 L 61.207031 27.792969 L 56.050781 30.78125 C 55.300781 31.222656 54.371094 30.671875 54.371094 29.808594 L 54.371094 22.445312 C 54.371094 21.582031 55.300781 21.035156 56.050781 21.472656 Z M 67.117188 15.933594 L 63.527344 15.933594 L 63.527344 36.296875 L 67.117188 36.296875 C 67.730469 36.296875 68.234375 35.789062 68.234375 35.171875 L 68.234375 17.070312 C 68.234375 16.441406 67.730469 15.933594 67.117188 15.933594 Z M 15.664062 4.238281 C 14.941406 4.238281 14.355469 4.828125 14.355469 5.554688 C 14.355469 6.28125 14.941406 6.871094 15.664062 6.871094 C 16.386719 6.871094 16.976562 6.28125 16.976562 5.554688 C 16.976562 4.828125 16.386719 4.238281 15.664062 4.238281 Z M 58.453125 49.375 L 54.261719 53.585938 L 50.199219 49.5 L 46.253906 53.460938 L 42.269531 49.457031 L 37.25 54.503906 L 38.953125 56.21875 L 42.257812 52.886719 L 46.242188 56.890625 L 50.183594 52.925781 L 54.25 57 L 58.4375 52.789062 L 61.820312 56.191406 L 63.527344 54.476562 Z M 58.453125 49.375 " fill-opacity="1" fill-rule="nonzero"/></g><path fill="#ff8186" d="M 44.234375 16.839844 C 44.167969 16.46875 43.90625 16.167969 43.566406 16.027344 C 43.429688 15.972656 43.28125 15.945312 43.128906 15.945312 L 25.105469 15.945312 C 24.957031 15.945312 24.804688 15.972656 24.667969 16.027344 C 24.34375 16.167969 24.082031 16.46875 24.015625 16.839844 C 24 16.921875 23.988281 16.988281 23.988281 17.070312 L 23.988281 35.183594 C 23.988281 35.800781 24.492188 36.308594 25.105469 36.308594 L 43.144531 36.308594 C 43.757812 36.308594 44.261719 35.800781 44.261719 35.183594 L 44.261719 17.070312 C 44.261719 16.988281 44.25 16.90625 44.234375 16.839844 Z M 37.015625 20.226562 C 38.613281 20.226562 39.910156 21.527344 39.910156 23.132812 C 39.910156 24.734375 38.613281 26.039062 37.015625 26.039062 C 35.421875 26.039062 34.125 24.734375 34.125 23.132812 C 34.125 21.527344 35.421875 20.226562 37.015625 20.226562 Z M 26.238281 34.058594 L 26.238281 26.21875 L 27.097656 25.40625 C 27.519531 24.996094 28.191406 24.996094 28.625 25.40625 L 34.03125 30.496094 L 36.144531 32.484375 C 36.566406 32.894531 37.234375 32.894531 37.671875 32.484375 L 40.085938 30.195312 C 40.511719 29.78125 41.179688 29.78125 41.617188 30.195312 L 42.011719 30.5625 L 42.023438 34.058594 Z M 11 4.238281 C 10.277344 4.238281 9.6875 4.828125 9.6875 5.554688 C 9.6875 6.28125 10.277344 6.871094 11 6.871094 C 11.722656 6.871094 12.308594 6.28125 12.308594 5.554688 C 12.308594 4.828125 11.722656 4.238281 11 4.238281 Z M 11 4.238281 " fill-opacity="1" fill-rule="nonzero"/><path fill="#532ccf" d="M 4.734375 15.933594 L 4.734375 29.371094 C 4.996094 29.234375 5.296875 29.152344 5.621094 29.152344 C 5.773438 29.152344 5.910156 29.164062 6.058594 29.191406 L 6.058594 21.953125 C 6.058594 21.570312 6.320312 21.226562 6.699219 21.128906 L 7.042969 21.046875 L 7.054688 21.046875 L 7.054688 15.933594 Z M 5.621094 33.386719 C 5.296875 33.386719 4.996094 33.304688 4.722656 33.167969 L 4.722656 36.296875 L 7.042969 36.296875 L 7.042969 32.824219 C 6.671875 33.167969 6.167969 33.386719 5.621094 33.386719 Z M 61.207031 15.945312 L 61.207031 24.460938 L 62.394531 25.148438 C 63.144531 25.574219 63.144531 26.65625 62.394531 27.09375 L 61.207031 27.78125 L 61.207031 36.296875 L 63.527344 36.296875 L 63.527344 15.945312 Z M 61.207031 15.945312 " fill-opacity="1" fill-rule="nonzero"/></svg>