<svg xmlns="http://www.w3.org/2000/svg" xmlns:xlink="http://www.w3.org/1999/xlink" width="92" zoomAndPan="magnify" viewBox="0 0 69 56.999997" height="76" preserveAspectRatio="xMidYMid meet" version="1.0"><defs><clipPath id="c01a657e98"><path d="M 24.367188 54.902344 L 53.605469 54.902344 L 53.605469 57 L 24.367188 57 Z M 24.367188 54.902344 " clip-rule="nonzero"/></clipPath><clipPath id="6ea87a9779"><path d="M 24.652344 55.625 L 53.175781 55.625 L 53.175781 57 L 24.652344 57 Z M 24.652344 55.625 " clip-rule="nonzero"/></clipPath><clipPath id="18a6c9d596"><path d="M 8.742188 42.773438 L 69 42.773438 L 69 48.546875 L 8.742188 48.546875 Z M 8.742188 42.773438 " clip-rule="nonzero"/></clipPath><clipPath id="d74e3c9c0c"><path d="M 8.742188 6.386719 L 69 6.386719 L 69 42.917969 L 8.742188 42.917969 Z M 8.742188 6.386719 " clip-rule="nonzero"/></clipPath><clipPath id="62943f7054"><path d="M 11.753906 9.273438 L 40.5625 9.273438 L 40.5625 19.8125 L 11.753906 19.8125 Z M 11.753906 9.273438 " clip-rule="nonzero"/></clipPath><clipPath id="75dab5a06f"><path d="M 39.929688 19.691406 L 12.296875 19.691406 C 12.011719 19.691406 11.78125 19.457031 11.78125 19.167969 L 11.78125 9.902344 C 11.78125 9.613281 12.011719 9.378906 12.296875 9.378906 L 39.929688 9.378906 C 40.214844 9.378906 40.445312 9.613281 40.445312 9.902344 L 40.445312 19.167969 C 40.445312 19.457031 40.214844 19.691406 39.929688 19.691406 Z M 39.929688 19.691406 " clip-rule="nonzero"/></clipPath><clipPath id="42e3a589f3"><path d="M 54.035156 18.082031 L 66.074219 18.082031 L 66.074219 29.488281 L 54.035156 29.488281 Z M 54.035156 18.082031 " clip-rule="nonzero"/></clipPath><clipPath id="66a4f249a2"><path d="M 65.546875 29.480469 L 45.027344 29.480469 C 44.761719 29.480469 44.546875 29.265625 44.546875 29 L 44.546875 17.003906 C 44.546875 16.734375 44.761719 16.519531 45.027344 16.519531 L 65.546875 16.519531 C 65.8125 16.519531 66.027344 16.734375 66.027344 17.003906 L 66.027344 29 C 66.027344 29.265625 65.8125 29.480469 65.546875 29.480469 Z M 65.546875 29.480469 " clip-rule="nonzero"/></clipPath><clipPath id="29730f881a"><path d="M 48.734375 21.257812 L 61.632812 21.257812 L 61.632812 29.488281 L 48.734375 29.488281 Z M 48.734375 21.257812 " clip-rule="nonzero"/></clipPath><clipPath id="db38ae5ffd"><path d="M 65.546875 29.480469 L 45.027344 29.480469 C 44.761719 29.480469 44.546875 29.265625 44.546875 29 L 44.546875 17.003906 C 44.546875 16.734375 44.761719 16.519531 45.027344 16.519531 L 65.546875 16.519531 C 65.8125 16.519531 66.027344 16.734375 66.027344 17.003906 L 66.027344 29 C 66.027344 29.265625 65.8125 29.480469 65.546875 29.480469 Z M 65.546875 29.480469 " clip-rule="nonzero"/></clipPath><clipPath id="c1a7769f86"><path d="M 48.445312 19.238281 L 50.738281 19.238281 L 50.738281 21.402344 L 48.445312 21.402344 Z M 48.445312 19.238281 " clip-rule="nonzero"/></clipPath><clipPath id="d9921773b8"><path d="M 65.546875 29.480469 L 45.027344 29.480469 C 44.761719 29.480469 44.546875 29.265625 44.546875 29 L 44.546875 17.003906 C 44.546875 16.734375 44.761719 16.519531 45.027344 16.519531 L 65.546875 16.519531 C 65.8125 16.519531 66.027344 16.734375 66.027344 17.003906 L 66.027344 29 C 66.027344 29.265625 65.8125 29.480469 65.546875 29.480469 Z M 65.546875 29.480469 " clip-rule="nonzero"/></clipPath></defs><g clip-path="url(#c01a657e98)"><path fill="#743ede" d="M 27.503906 55.753906 L 50.398438 55.753906 C 51.558594 55.753906 52.597656 56.382812 53.160156 57.351562 L 53.492188 57.351562 C 53.121094 55.941406 51.851562 54.957031 50.398438 54.957031 L 27.503906 54.957031 C 26.054688 54.957031 24.785156 55.941406 24.414062 57.351562 L 24.746094 57.351562 C 25.308594 56.382812 26.347656 55.753906 27.503906 55.753906 " fill-opacity="1" fill-rule="nonzero"/></g><g clip-path="url(#6ea87a9779)"><path fill="#804dde" d="M 50.398438 55.753906 L 27.503906 55.753906 C 26.347656 55.753906 25.308594 56.382812 24.746094 57.351562 L 53.160156 57.351562 C 52.597656 56.382812 51.558594 55.753906 50.398438 55.753906 " fill-opacity="1" fill-rule="nonzero"/></g><path fill="#804dde" d="M 30.585938 51.023438 L 29.335938 54.957031 L 48.570312 54.957031 L 47.320312 51.023438 L 30.585938 51.023438 " fill-opacity="1" fill-rule="nonzero"/><path fill="#5d17a4" d="M 46.519531 48.492188 L 31.386719 48.492188 L 30.585938 51.023438 L 47.320312 51.023438 L 46.519531 48.492188 " fill-opacity="1" fill-rule="nonzero"/><g clip-path="url(#18a6c9d596)"><path fill="#804dde" d="M 66.84375 48.492188 L 10.980469 48.492188 C 9.789062 48.492188 8.824219 47.519531 8.824219 46.320312 L 8.824219 42.886719 L 69 42.886719 L 69 46.320312 C 69 47.519531 68.035156 48.492188 66.84375 48.492188 " fill-opacity="1" fill-rule="nonzero"/></g><path fill="#5d17a4" d="M 40.445312 45.691406 C 40.445312 46.542969 39.757812 47.234375 38.914062 47.234375 C 38.066406 47.234375 37.378906 46.542969 37.378906 45.691406 C 37.378906 44.835938 38.066406 44.144531 38.914062 44.144531 C 39.757812 44.144531 40.445312 44.835938 40.445312 45.691406 " fill-opacity="1" fill-rule="nonzero"/><g clip-path="url(#d74e3c9c0c)"><path fill="#9de8ff" d="M 69 42.886719 L 8.824219 42.886719 L 8.824219 8.285156 C 8.824219 7.234375 9.667969 6.386719 10.710938 6.386719 L 67.113281 6.386719 C 68.15625 6.386719 69 7.234375 69 8.285156 L 69 42.886719 " fill-opacity="1" fill-rule="nonzero"/></g><path fill="#ffffff" d="M 41.230469 41.050781 L 10.996094 41.050781 C 10.804688 41.050781 10.648438 40.894531 10.648438 40.699219 L 10.648438 8.570312 C 10.648438 8.378906 10.804688 8.222656 10.996094 8.222656 L 41.230469 8.222656 C 41.421875 8.222656 41.578125 8.378906 41.578125 8.570312 L 41.578125 40.699219 C 41.578125 40.894531 41.421875 41.050781 41.230469 41.050781 " fill-opacity="1" fill-rule="nonzero"/><path fill="#ffffff" d="M 66.828125 13.726562 L 43.746094 13.726562 C 43.554688 13.726562 43.402344 13.574219 43.402344 13.378906 L 43.402344 8.570312 C 43.402344 8.378906 43.554688 8.222656 43.746094 8.222656 L 66.828125 8.222656 C 67.019531 8.222656 67.175781 8.378906 67.175781 8.570312 L 67.175781 13.378906 C 67.175781 13.574219 67.019531 13.726562 66.828125 13.726562 " fill-opacity="1" fill-rule="nonzero"/><path fill="#ffffff" d="M 66.828125 41.050781 L 43.746094 41.050781 C 43.554688 41.050781 43.402344 40.894531 43.402344 40.699219 L 43.402344 15.878906 C 43.402344 15.683594 43.554688 15.53125 43.746094 15.53125 L 66.828125 15.53125 C 67.019531 15.53125 67.175781 15.683594 67.175781 15.878906 L 67.175781 40.699219 C 67.175781 40.894531 67.019531 41.050781 66.828125 41.050781 " fill-opacity="1" fill-rule="nonzero"/><path fill="#ff9cc7" d="M 40.226562 25.320312 L 36.609375 25.320312 C 36.417969 25.320312 36.25 25.183594 36.21875 24.996094 C 36.179688 24.753906 36.367188 24.542969 36.597656 24.542969 L 40.226562 24.542969 C 40.4375 24.542969 40.609375 24.71875 40.609375 24.929688 C 40.609375 25.144531 40.4375 25.320312 40.226562 25.320312 " fill-opacity="1" fill-rule="nonzero"/><path fill="#ff9cc7" d="M 35.332031 25.320312 L 29.859375 25.320312 C 29.667969 25.320312 29.5 25.183594 29.46875 24.996094 C 29.429688 24.753906 29.613281 24.542969 29.847656 24.542969 L 35.332031 24.542969 C 35.542969 24.542969 35.714844 24.71875 35.714844 24.929688 C 35.714844 25.144531 35.542969 25.320312 35.332031 25.320312 " fill-opacity="1" fill-rule="nonzero"/><path fill="#ff9cc7" d="M 40.226562 27.089844 L 38.667969 27.089844 C 38.476562 27.089844 38.308594 26.957031 38.277344 26.765625 C 38.238281 26.523438 38.421875 26.316406 38.65625 26.316406 L 40.214844 26.316406 C 40.40625 26.316406 40.574219 26.449219 40.605469 26.636719 C 40.640625 26.878906 40.457031 27.089844 40.226562 27.089844 " fill-opacity="1" fill-rule="nonzero"/><path fill="#ff9cc7" d="M 37.613281 26.765625 C 37.585938 26.957031 37.414062 27.089844 37.226562 27.089844 L 30.054688 27.089844 C 29.867188 27.089844 29.695312 26.957031 29.667969 26.765625 C 29.628906 26.523438 29.8125 26.3125 30.046875 26.3125 L 37.234375 26.3125 C 37.46875 26.3125 37.652344 26.523438 37.613281 26.765625 " fill-opacity="1" fill-rule="nonzero"/><path fill="#ff9cc7" d="M 29.761719 28.085938 L 30.546875 28.085938 C 30.734375 28.085938 30.90625 28.21875 30.9375 28.410156 C 30.972656 28.652344 30.789062 28.859375 30.554688 28.859375 L 29.761719 28.859375 C 29.546875 28.859375 29.375 28.6875 29.375 28.472656 C 29.375 28.257812 29.546875 28.085938 29.761719 28.085938 " fill-opacity="1" fill-rule="nonzero"/><path fill="#ff9cc7" d="M 40.609375 28.472656 C 40.609375 28.6875 40.4375 28.859375 40.226562 28.859375 L 31.976562 28.859375 C 31.765625 28.859375 31.59375 28.6875 31.59375 28.472656 C 31.59375 28.257812 31.765625 28.085938 31.976562 28.085938 L 40.226562 28.085938 C 40.4375 28.085938 40.609375 28.257812 40.609375 28.472656 " fill-opacity="1" fill-rule="nonzero"/><path fill="#ff9cc7" d="M 40.226562 37.511719 L 36.609375 37.511719 C 36.417969 37.511719 36.25 37.375 36.21875 37.1875 C 36.179688 36.945312 36.367188 36.738281 36.597656 36.738281 L 40.226562 36.738281 C 40.4375 36.738281 40.609375 36.910156 40.609375 37.125 C 40.609375 37.339844 40.4375 37.511719 40.226562 37.511719 " fill-opacity="1" fill-rule="nonzero"/><path fill="#ff9cc7" d="M 35.332031 37.511719 L 29.859375 37.511719 C 29.667969 37.511719 29.5 37.375 29.46875 37.1875 C 29.429688 36.945312 29.613281 36.734375 29.847656 36.734375 L 35.332031 36.734375 C 35.542969 36.734375 35.714844 36.910156 35.714844 37.125 C 35.714844 37.339844 35.542969 37.511719 35.332031 37.511719 " fill-opacity="1" fill-rule="nonzero"/><path fill="#ff9cc7" d="M 40.226562 39.28125 L 38.667969 39.28125 C 38.476562 39.28125 38.308594 39.148438 38.277344 38.957031 C 38.238281 38.714844 38.421875 38.507812 38.65625 38.507812 L 40.214844 38.507812 C 40.40625 38.507812 40.574219 38.640625 40.605469 38.832031 C 40.640625 39.074219 40.457031 39.28125 40.226562 39.28125 " fill-opacity="1" fill-rule="nonzero"/><path fill="#ff9cc7" d="M 37.613281 38.957031 C 37.585938 39.148438 37.414062 39.28125 37.226562 39.28125 L 30.054688 39.28125 C 29.867188 39.28125 29.695312 39.148438 29.667969 38.957031 C 29.628906 38.714844 29.8125 38.507812 30.046875 38.507812 L 37.234375 38.507812 C 37.46875 38.507812 37.652344 38.714844 37.613281 38.957031 " fill-opacity="1" fill-rule="nonzero"/><path fill="#f71880" d="M 27.375 23.308594 L 40.3125 23.308594 C 40.476562 23.308594 40.609375 23.175781 40.609375 23.011719 L 40.609375 21.117188 C 40.609375 20.949219 40.476562 20.816406 40.3125 20.816406 L 27.375 20.816406 C 27.210938 20.816406 27.078125 20.949219 27.078125 21.117188 L 27.078125 23.011719 C 27.078125 23.175781 27.210938 23.308594 27.375 23.308594 " fill-opacity="1" fill-rule="nonzero"/><path fill="#f774af" d="M 39.929688 19.691406 L 12.296875 19.691406 C 12.011719 19.691406 11.78125 19.457031 11.78125 19.167969 L 11.78125 9.902344 C 11.78125 9.613281 12.011719 9.378906 12.296875 9.378906 L 39.929688 9.378906 C 40.214844 9.378906 40.445312 9.613281 40.445312 9.902344 L 40.445312 19.167969 C 40.445312 19.457031 40.214844 19.691406 39.929688 19.691406 " fill-opacity="1" fill-rule="nonzero"/><g clip-path="url(#62943f7054)"><g clip-path="url(#75dab5a06f)"><path fill="#ffffff" d="M 40.347656 19.96875 L 11.617188 9.851562 L 11.878906 9.101562 L 40.609375 19.21875 L 40.347656 19.96875 " fill-opacity="1" fill-rule="nonzero"/><path fill="#ffffff" d="M 11.878906 19.96875 L 11.617188 19.21875 L 40.347656 9.101562 L 40.609375 9.851562 L 11.878906 19.96875 " fill-opacity="1" fill-rule="nonzero"/></g></g><path fill="#a77bea" d="M 28.753906 14.972656 L 33.332031 19.582031 L 29.632812 23.308594 Z M 28.753906 14.972656 " fill-opacity="1" fill-rule="nonzero"/><path fill="#f71880" d="M 0.757812 10.976562 C 0.339844 10.976562 0 11.316406 0 11.738281 L 0 39.539062 C 0 39.960938 0.339844 40.300781 0.757812 40.300781 L 5.414062 40.300781 L 5.414062 10.976562 L 0.757812 10.976562 " fill-opacity="1" fill-rule="nonzero"/><path fill="#a77bea" d="M 29.449219 10.976562 L 5.414062 10.976562 L 5.414062 40.300781 L 29.449219 40.300781 C 29.863281 40.300781 30.203125 39.960938 30.203125 39.539062 L 30.203125 11.738281 C 30.203125 11.316406 29.863281 10.976562 29.449219 10.976562 " fill-opacity="1" fill-rule="nonzero"/><path fill="#ff9cc7" d="M 4.0625 14.09375 L 1.355469 14.09375 C 1.113281 14.09375 0.914062 13.894531 0.914062 13.652344 C 0.914062 13.40625 1.113281 13.210938 1.355469 13.210938 L 4.0625 13.210938 C 4.304688 13.210938 4.5 13.40625 4.5 13.652344 C 4.5 13.894531 4.304688 14.09375 4.0625 14.09375 " fill-opacity="1" fill-rule="nonzero"/><path fill="#ff9cc7" d="M 4.0625 18.089844 L 1.355469 18.089844 C 1.113281 18.089844 0.914062 17.890625 0.914062 17.648438 C 0.914062 17.402344 1.113281 17.207031 1.355469 17.207031 L 4.0625 17.207031 C 4.304688 17.207031 4.5 17.402344 4.5 17.648438 C 4.5 17.890625 4.304688 18.089844 4.0625 18.089844 " fill-opacity="1" fill-rule="nonzero"/><path fill="#ff9cc7" d="M 4.0625 22.085938 L 1.355469 22.085938 C 1.113281 22.085938 0.914062 21.886719 0.914062 21.644531 C 0.914062 21.398438 1.113281 21.203125 1.355469 21.203125 L 4.0625 21.203125 C 4.304688 21.203125 4.5 21.398438 4.5 21.644531 C 4.5 21.886719 4.304688 22.085938 4.0625 22.085938 " fill-opacity="1" fill-rule="nonzero"/><path fill="#ff9cc7" d="M 4.0625 26.082031 L 1.355469 26.082031 C 1.113281 26.082031 0.914062 25.882812 0.914062 25.640625 C 0.914062 25.394531 1.113281 25.195312 1.355469 25.195312 L 4.0625 25.195312 C 4.304688 25.195312 4.5 25.394531 4.5 25.640625 C 4.5 25.882812 4.304688 26.082031 4.0625 26.082031 " fill-opacity="1" fill-rule="nonzero"/><path fill="#ff9cc7" d="M 4.0625 30.078125 L 1.355469 30.078125 C 1.113281 30.078125 0.914062 29.878906 0.914062 29.636719 C 0.914062 29.390625 1.113281 29.191406 1.355469 29.191406 L 4.0625 29.191406 C 4.304688 29.191406 4.5 29.390625 4.5 29.636719 C 4.5 29.878906 4.304688 30.078125 4.0625 30.078125 " fill-opacity="1" fill-rule="nonzero"/><path fill="#ff9cc7" d="M 4.0625 34.070312 L 1.355469 34.070312 C 1.113281 34.070312 0.914062 33.875 0.914062 33.628906 C 0.914062 33.386719 1.113281 33.1875 1.355469 33.1875 L 4.0625 33.1875 C 4.304688 33.1875 4.5 33.386719 4.5 33.628906 C 4.5 33.875 4.304688 34.070312 4.0625 34.070312 " fill-opacity="1" fill-rule="nonzero"/><path fill="#ff9cc7" d="M 4.0625 38.066406 L 1.355469 38.066406 C 1.113281 38.066406 0.914062 37.871094 0.914062 37.625 C 0.914062 37.382812 1.113281 37.183594 1.355469 37.183594 L 4.0625 37.183594 C 4.304688 37.183594 4.5 37.382812 4.5 37.625 C 4.5 37.871094 4.304688 38.066406 4.0625 38.066406 " fill-opacity="1" fill-rule="nonzero"/><path fill="#ffffff" d="M 11.867188 14.8125 L 7.429688 14.8125 C 7.175781 14.8125 6.972656 14.605469 6.972656 14.351562 C 6.972656 14.101562 7.175781 13.894531 7.429688 13.894531 L 11.867188 13.894531 C 12.117188 13.894531 12.320312 14.101562 12.320312 14.351562 C 12.320312 14.605469 12.117188 14.8125 11.867188 14.8125 " fill-opacity="1" fill-rule="nonzero"/><path fill="#ffffff" d="M 19.90625 14.8125 L 13.367188 14.8125 C 13.113281 14.8125 12.910156 14.605469 12.910156 14.351562 C 12.910156 14.101562 13.113281 13.894531 13.367188 13.894531 L 19.90625 13.894531 C 20.160156 13.894531 20.363281 14.101562 20.363281 14.351562 C 20.363281 14.605469 20.160156 14.8125 19.90625 14.8125 " fill-opacity="1" fill-rule="nonzero"/><path fill="#d0b6f1" d="M 8.65625 16.871094 L 7.429688 16.871094 C 7.175781 16.871094 6.972656 16.664062 6.972656 16.410156 C 6.972656 16.15625 7.175781 15.953125 7.429688 15.953125 L 8.65625 15.953125 C 8.90625 15.953125 9.109375 16.15625 9.109375 16.410156 C 9.109375 16.664062 8.90625 16.871094 8.65625 16.871094 " fill-opacity="1" fill-rule="nonzero"/><path fill="#f774af" d="M 21.308594 16.871094 L 9.867188 16.871094 C 9.613281 16.871094 9.410156 16.664062 9.410156 16.410156 C 9.410156 16.15625 9.613281 15.953125 9.867188 15.953125 L 21.308594 15.953125 C 21.558594 15.953125 21.761719 16.15625 21.761719 16.410156 C 21.761719 16.664062 21.558594 16.871094 21.308594 16.871094 " fill-opacity="1" fill-rule="nonzero"/><path fill="#ffffff" d="M 11.867188 28.488281 L 7.429688 28.488281 C 7.175781 28.488281 6.972656 28.28125 6.972656 28.027344 C 6.972656 27.773438 7.175781 27.570312 7.429688 27.570312 L 11.867188 27.570312 C 12.117188 27.570312 12.320312 27.773438 12.320312 28.027344 C 12.320312 28.28125 12.117188 28.488281 11.867188 28.488281 " fill-opacity="1" fill-rule="nonzero"/><path fill="#f774af" d="M 14.871094 28.488281 L 13.257812 28.488281 C 13.007812 28.488281 12.800781 28.28125 12.800781 28.027344 C 12.800781 27.773438 13.007812 27.570312 13.257812 27.570312 L 14.871094 27.570312 C 15.121094 27.570312 15.324219 27.773438 15.324219 28.027344 C 15.324219 28.28125 15.121094 28.488281 14.871094 28.488281 " fill-opacity="1" fill-rule="nonzero"/><path fill="#d0b6f1" d="M 26.625 28.488281 L 16.394531 28.488281 C 16.144531 28.488281 15.941406 28.28125 15.941406 28.027344 C 15.941406 27.773438 16.144531 27.570312 16.394531 27.570312 L 26.625 27.570312 C 26.875 27.570312 27.078125 27.773438 27.078125 28.027344 C 27.078125 28.28125 26.875 28.488281 26.625 28.488281 " fill-opacity="1" fill-rule="nonzero"/><path fill="#ffffff" d="M 15.945312 30.546875 L 7.429688 30.546875 C 7.175781 30.546875 6.972656 30.339844 6.972656 30.085938 C 6.972656 29.832031 7.175781 29.628906 7.429688 29.628906 L 15.945312 29.628906 C 16.195312 29.628906 16.402344 29.832031 16.402344 30.085938 C 16.402344 30.339844 16.195312 30.546875 15.945312 30.546875 " fill-opacity="1" fill-rule="nonzero"/><path fill="#d0b6f1" d="M 19.835938 30.546875 L 17.242188 30.546875 C 16.992188 30.546875 16.785156 30.339844 16.785156 30.085938 C 16.785156 29.832031 16.992188 29.628906 17.242188 29.628906 L 19.835938 29.628906 C 20.085938 29.628906 20.292969 29.832031 20.292969 30.085938 C 20.292969 30.339844 20.085938 30.546875 19.835938 30.546875 " fill-opacity="1" fill-rule="nonzero"/><path fill="#ffffff" d="M 25.445312 30.546875 L 21.253906 30.546875 C 21.003906 30.546875 20.800781 30.339844 20.800781 30.085938 C 20.800781 29.832031 21.003906 29.628906 21.253906 29.628906 L 25.445312 29.628906 C 25.695312 29.628906 25.898438 29.832031 25.898438 30.085938 C 25.898438 30.339844 25.695312 30.546875 25.445312 30.546875 " fill-opacity="1" fill-rule="nonzero"/><path fill="#ffffff" d="M 10.886719 21.648438 L 7.429688 21.648438 C 7.175781 21.648438 6.972656 21.445312 6.972656 21.191406 C 6.972656 20.9375 7.175781 20.730469 7.429688 20.730469 L 10.886719 20.730469 C 11.136719 20.730469 11.339844 20.9375 11.339844 21.191406 C 11.339844 21.445312 11.136719 21.648438 10.886719 21.648438 " fill-opacity="1" fill-rule="nonzero"/><path fill="#ffffff" d="M 24.136719 21.648438 L 12.382812 21.648438 C 12.132812 21.648438 11.929688 21.445312 11.929688 21.191406 C 11.929688 20.9375 12.132812 20.730469 12.382812 20.730469 L 24.136719 20.730469 C 24.386719 20.730469 24.589844 20.9375 24.589844 21.191406 C 24.589844 21.445312 24.386719 21.648438 24.136719 21.648438 " fill-opacity="1" fill-rule="nonzero"/><path fill="#f774af" d="M 15.734375 23.707031 L 7.429688 23.707031 C 7.175781 23.707031 6.972656 23.503906 6.972656 23.25 C 6.972656 22.996094 7.175781 22.789062 7.429688 22.789062 L 15.734375 22.789062 C 15.988281 22.789062 16.191406 22.996094 16.191406 23.25 C 16.191406 23.503906 15.988281 23.707031 15.734375 23.707031 " fill-opacity="1" fill-rule="nonzero"/><path fill="#d0b6f1" d="M 20.410156 23.707031 L 17.488281 23.707031 C 17.238281 23.707031 17.035156 23.503906 17.035156 23.25 C 17.035156 22.996094 17.238281 22.789062 17.488281 22.789062 L 20.410156 22.789062 C 20.660156 22.789062 20.867188 22.996094 20.867188 23.25 C 20.867188 23.503906 20.660156 23.707031 20.410156 23.707031 " fill-opacity="1" fill-rule="nonzero"/><path fill="#ffffff" d="M 10.886719 35.324219 L 7.429688 35.324219 C 7.175781 35.324219 6.972656 35.121094 6.972656 34.867188 C 6.972656 34.613281 7.175781 34.40625 7.429688 34.40625 L 10.886719 34.40625 C 11.136719 34.40625 11.339844 34.613281 11.339844 34.867188 C 11.339844 35.121094 11.136719 35.324219 10.886719 35.324219 " fill-opacity="1" fill-rule="nonzero"/><path fill="#ffffff" d="M 24.136719 35.324219 L 12.382812 35.324219 C 12.132812 35.324219 11.929688 35.121094 11.929688 34.867188 C 11.929688 34.613281 12.132812 34.40625 12.382812 34.40625 L 24.136719 34.40625 C 24.386719 34.40625 24.589844 34.613281 24.589844 34.867188 C 24.589844 35.121094 24.386719 35.324219 24.136719 35.324219 " fill-opacity="1" fill-rule="nonzero"/><path fill="#f774af" d="M 15.734375 37.382812 L 7.429688 37.382812 C 7.175781 37.382812 6.972656 37.179688 6.972656 36.925781 C 6.972656 36.671875 7.175781 36.464844 7.429688 36.464844 L 15.734375 36.464844 C 15.988281 36.464844 16.191406 36.671875 16.191406 36.925781 C 16.191406 37.179688 15.988281 37.382812 15.734375 37.382812 " fill-opacity="1" fill-rule="nonzero"/><path fill="#d0b6f1" d="M 20.410156 37.382812 L 17.488281 37.382812 C 17.238281 37.382812 17.035156 37.179688 17.035156 36.925781 C 17.035156 36.671875 17.238281 36.464844 17.488281 36.464844 L 20.410156 36.464844 C 20.660156 36.464844 20.867188 36.671875 20.867188 36.925781 C 20.867188 37.179688 20.660156 37.382812 20.410156 37.382812 " fill-opacity="1" fill-rule="nonzero"/><path fill="#67deff" d="M 48.140625 12.957031 L 44.890625 12.957031 C 44.703125 12.957031 44.546875 12.804688 44.546875 12.613281 L 44.546875 9.339844 C 44.546875 9.148438 44.703125 8.996094 44.890625 8.996094 L 48.140625 8.996094 C 48.328125 8.996094 48.484375 9.148438 48.484375 9.339844 L 48.484375 12.613281 C 48.484375 12.804688 48.328125 12.957031 48.140625 12.957031 " fill-opacity="1" fill-rule="nonzero"/><path fill="#67deff" d="M 52.007812 10.636719 L 49.820312 10.636719 C 49.570312 10.636719 49.367188 10.429688 49.367188 10.175781 C 49.367188 9.921875 49.570312 9.71875 49.820312 9.71875 L 52.007812 9.71875 C 52.261719 9.71875 52.464844 9.921875 52.464844 10.175781 C 52.464844 10.429688 52.261719 10.636719 52.007812 10.636719 " fill-opacity="1" fill-rule="nonzero"/><path fill="#67deff" d="M 54.773438 10.636719 L 53.507812 10.636719 C 53.253906 10.636719 53.050781 10.429688 53.050781 10.175781 C 53.050781 9.921875 53.253906 9.71875 53.507812 9.71875 L 54.773438 9.71875 C 55.023438 9.71875 55.226562 9.921875 55.226562 10.175781 C 55.226562 10.429688 55.023438 10.636719 54.773438 10.636719 " fill-opacity="1" fill-rule="nonzero"/><path fill="#67deff" d="M 60.523438 12.234375 L 49.820312 12.234375 C 49.570312 12.234375 49.367188 12.027344 49.367188 11.773438 C 49.367188 11.523438 49.570312 11.316406 49.820312 11.316406 L 60.523438 11.316406 C 60.777344 11.316406 60.980469 11.523438 60.980469 11.773438 C 60.980469 12.027344 60.777344 12.234375 60.523438 12.234375 " fill-opacity="1" fill-rule="nonzero"/><path fill="#67deff" d="M 65.570312 12.234375 L 61.824219 12.234375 C 61.574219 12.234375 61.367188 12.027344 61.367188 11.773438 C 61.367188 11.523438 61.574219 11.316406 61.824219 11.316406 L 65.570312 11.316406 C 65.824219 11.316406 66.027344 11.523438 66.027344 11.773438 C 66.027344 12.027344 65.824219 12.234375 65.570312 12.234375 " fill-opacity="1" fill-rule="nonzero"/><path fill="#d0b6f1" d="M 65.546875 29.480469 L 45.027344 29.480469 C 44.761719 29.480469 44.546875 29.265625 44.546875 29 L 44.546875 17.003906 C 44.546875 16.734375 44.761719 16.519531 45.027344 16.519531 L 65.546875 16.519531 C 65.8125 16.519531 66.027344 16.734375 66.027344 17.003906 L 66.027344 29 C 66.027344 29.265625 65.8125 29.480469 65.546875 29.480469 " fill-opacity="1" fill-rule="nonzero"/><g clip-path="url(#42e3a589f3)"><g clip-path="url(#66a4f249a2)"><path fill="#5d17a4" d="M 62.902344 18.207031 L 54.140625 29.480469 L 71.664062 29.480469 Z M 62.902344 18.207031 " fill-opacity="1" fill-rule="nonzero"/></g></g><g clip-path="url(#29730f881a)"><g clip-path="url(#db38ae5ffd)"><path fill="#804dde" d="M 55.171875 21.304688 L 48.816406 29.480469 L 61.53125 29.480469 Z M 55.171875 21.304688 " fill-opacity="1" fill-rule="nonzero"/></g></g><g clip-path="url(#c1a7769f86)"><g clip-path="url(#d9921773b8)"><path fill="#5d17a4" d="M 50.613281 20.273438 C 50.613281 20.84375 50.15625 21.304688 49.589844 21.304688 C 49.027344 21.304688 48.570312 20.84375 48.570312 20.273438 C 48.570312 19.707031 49.027344 19.246094 49.589844 19.246094 C 50.15625 19.246094 50.613281 19.707031 50.613281 20.273438 " fill-opacity="1" fill-rule="nonzero"/></g></g><path fill="#d0b6f1" d="M 55.839844 31.523438 L 48.535156 31.523438 C 48.28125 31.523438 48.078125 31.316406 48.078125 31.0625 C 48.078125 30.808594 48.28125 30.601562 48.535156 30.601562 L 55.839844 30.601562 C 56.09375 30.601562 56.296875 30.808594 56.296875 31.0625 C 56.296875 31.316406 56.09375 31.523438 55.839844 31.523438 " fill-opacity="1" fill-rule="nonzero"/><path fill="#804dde" d="M 58.605469 31.523438 L 57.339844 31.523438 C 57.085938 31.523438 56.882812 31.316406 56.882812 31.0625 C 56.882812 30.808594 57.085938 30.601562 57.339844 30.601562 L 58.605469 30.601562 C 58.855469 30.601562 59.058594 30.808594 59.058594 31.0625 C 59.058594 31.316406 58.855469 31.523438 58.605469 31.523438 " fill-opacity="1" fill-rule="nonzero"/><path fill="#d0b6f1" d="M 49.53125 33.121094 L 48.535156 33.121094 C 48.28125 33.121094 48.078125 32.914062 48.078125 32.660156 C 48.078125 32.40625 48.28125 32.203125 48.535156 32.203125 L 49.53125 32.203125 C 49.78125 32.203125 49.984375 32.40625 49.984375 32.660156 C 49.984375 32.914062 49.78125 33.121094 49.53125 33.121094 " fill-opacity="1" fill-rule="nonzero"/><path fill="#d0b6f1" d="M 56.882812 33.121094 L 50.914062 33.121094 C 50.660156 33.121094 50.457031 32.914062 50.457031 32.660156 C 50.457031 32.40625 50.660156 32.203125 50.914062 32.203125 L 56.882812 32.203125 C 57.132812 32.203125 57.339844 32.40625 57.339844 32.660156 C 57.339844 32.914062 57.132812 33.121094 56.882812 33.121094 " fill-opacity="1" fill-rule="nonzero"/><path fill="#d0b6f1" d="M 65.570312 33.121094 L 58.425781 33.121094 C 58.175781 33.121094 57.972656 32.914062 57.972656 32.660156 C 57.972656 32.40625 58.175781 32.203125 58.425781 32.203125 L 65.570312 32.203125 C 65.824219 32.203125 66.027344 32.40625 66.027344 32.660156 C 66.027344 32.914062 65.824219 33.121094 65.570312 33.121094 " fill-opacity="1" fill-rule="nonzero"/><path fill="#804dde" d="M 47.046875 31.863281 C 47.046875 32.554688 46.488281 33.121094 45.796875 33.121094 C 45.109375 33.121094 44.546875 32.554688 44.546875 31.863281 C 44.546875 31.167969 45.109375 30.601562 45.796875 30.601562 C 46.488281 30.601562 47.046875 31.167969 47.046875 31.863281 " fill-opacity="1" fill-rule="nonzero"/><path fill="#d0b6f1" d="M 50.855469 35.898438 L 48.535156 35.898438 C 48.28125 35.898438 48.078125 35.691406 48.078125 35.4375 C 48.078125 35.183594 48.28125 34.980469 48.535156 34.980469 L 50.855469 34.980469 C 51.105469 34.980469 51.3125 35.183594 51.3125 35.4375 C 51.3125 35.691406 51.105469 35.898438 50.855469 35.898438 " fill-opacity="1" fill-rule="nonzero"/><path fill="#d0b6f1" d="M 53.617188 35.898438 L 52.351562 35.898438 C 52.101562 35.898438 51.898438 35.691406 51.898438 35.4375 C 51.898438 35.183594 52.101562 34.980469 52.351562 34.980469 L 53.617188 34.980469 C 53.871094 34.980469 54.074219 35.183594 54.074219 35.4375 C 54.074219 35.691406 53.871094 35.898438 53.617188 35.898438 " fill-opacity="1" fill-rule="nonzero"/><path fill="#d0b6f1" d="M 52.292969 37.496094 L 48.535156 37.496094 C 48.28125 37.496094 48.078125 37.292969 48.078125 37.039062 C 48.078125 36.785156 48.28125 36.578125 48.535156 36.578125 L 52.292969 36.578125 C 52.546875 36.578125 52.75 36.785156 52.75 37.039062 C 52.75 37.292969 52.546875 37.496094 52.292969 37.496094 " fill-opacity="1" fill-rule="nonzero"/><path fill="#804dde" d="M 62 37.496094 L 53.675781 37.496094 C 53.425781 37.496094 53.222656 37.292969 53.222656 37.039062 C 53.222656 36.785156 53.425781 36.578125 53.675781 36.578125 L 62 36.578125 C 62.25 36.578125 62.453125 36.785156 62.453125 37.039062 C 62.453125 37.292969 62.25 37.496094 62 37.496094 " fill-opacity="1" fill-rule="nonzero"/><path fill="#d0b6f1" d="M 65.570312 37.496094 L 63.542969 37.496094 C 63.292969 37.496094 63.089844 37.292969 63.089844 37.039062 C 63.089844 36.785156 63.292969 36.578125 63.542969 36.578125 L 65.570312 36.578125 C 65.824219 36.578125 66.027344 36.785156 66.027344 37.039062 C 66.027344 37.292969 65.824219 37.496094 65.570312 37.496094 " fill-opacity="1" fill-rule="nonzero"/><path fill="#804dde" d="M 47.046875 36.238281 C 47.046875 36.933594 46.488281 37.496094 45.796875 37.496094 C 45.109375 37.496094 44.546875 36.933594 44.546875 36.238281 C 44.546875 35.542969 45.109375 34.980469 45.796875 34.980469 C 46.488281 34.980469 47.046875 35.542969 47.046875 36.238281 " fill-opacity="1" fill-rule="nonzero"/><path fill="#804dde" d="M 65.410156 40.058594 L 45.164062 40.058594 C 44.824219 40.058594 44.546875 39.78125 44.546875 39.4375 C 44.546875 39.09375 44.824219 38.816406 45.164062 38.816406 L 65.410156 38.816406 C 65.75 38.816406 66.027344 39.09375 66.027344 39.4375 C 66.027344 39.78125 65.75 40.058594 65.410156 40.058594 " fill-opacity="1" fill-rule="nonzero"/><path fill="#ffcae0" d="M 40.609375 35.460938 L 30.203125 35.460938 L 30.203125 30.136719 L 40.609375 30.136719 L 40.609375 35.460938 " fill-opacity="1" fill-rule="nonzero"/></svg>