<svg xmlns="http://www.w3.org/2000/svg" xmlns:xlink="http://www.w3.org/1999/xlink" width="135" zoomAndPan="magnify" viewBox="0 0 101.25 30.000001" height="40" preserveAspectRatio="xMidYMid meet" version="1.0"><defs><g/><clipPath id="9b88a7891a"><path d="M 1.269531 0 L 77 0 L 77 29.03125 L 1.269531 29.03125 Z M 1.269531 0 " clip-rule="nonzero"/></clipPath></defs><g clip-path="url(#9b88a7891a)"><path stroke-linecap="butt" transform="matrix(0.401392, 0.0000316845, -0.0000315538, 0.399735, 7.224129, 23.173632)" fill="none" stroke-linejoin="miter" d="M -0.00319833 5.995669 L 105.576648 5.997072 " stroke="#ffffff" stroke-width="12" stroke-opacity="1" stroke-miterlimit="4"/></g><g fill="#ffffff" fill-opacity="1"><g transform="translate(5.624998, 19.277464)"><g><path d="M 16.3125 -9.796875 C 17.382812 -9.421875 18.222656 -8.832031 18.828125 -8.03125 C 19.441406 -7.238281 19.75 -6.28125 19.75 -5.15625 C 19.75 -3.507812 19.085938 -2.238281 17.765625 -1.34375 C 16.441406 -0.445312 14.523438 0 12.015625 0 L 1.875 0 L 1.875 -18.78125 L 11.484375 -18.78125 C 13.878906 -18.78125 15.703125 -18.335938 16.953125 -17.453125 C 18.203125 -16.566406 18.828125 -15.375 18.828125 -13.875 C 18.828125 -12.976562 18.609375 -12.175781 18.171875 -11.46875 C 17.734375 -10.757812 17.113281 -10.203125 16.3125 -9.796875 Z M 7.140625 -14.9375 L 7.140625 -11.328125 L 10.78125 -11.328125 C 12.570312 -11.328125 13.46875 -11.929688 13.46875 -13.140625 C 13.46875 -14.335938 12.570312 -14.9375 10.78125 -14.9375 Z M 11.59375 -3.84375 C 13.445312 -3.84375 14.375 -4.472656 14.375 -5.734375 C 14.375 -7.003906 13.445312 -7.640625 11.59375 -7.640625 L 7.140625 -7.640625 L 7.140625 -3.84375 Z M 11.59375 -3.84375 "/></g></g></g><g fill="#ffffff" fill-opacity="1"><g transform="translate(28.592343, 19.277464)"><g><path d="M 11.34375 0.375 C 9.363281 0.375 7.582031 -0.0390625 6 -0.875 C 4.414062 -1.71875 3.171875 -2.878906 2.265625 -4.359375 C 1.359375 -5.847656 0.90625 -7.523438 0.90625 -9.390625 C 0.90625 -11.253906 1.359375 -12.925781 2.265625 -14.40625 C 3.171875 -15.894531 4.414062 -17.054688 6 -17.890625 C 7.582031 -18.734375 9.363281 -19.15625 11.34375 -19.15625 C 13.332031 -19.15625 15.117188 -18.734375 16.703125 -17.890625 C 18.285156 -17.054688 19.523438 -15.894531 20.421875 -14.40625 C 21.328125 -12.925781 21.78125 -11.253906 21.78125 -9.390625 C 21.78125 -7.523438 21.328125 -5.847656 20.421875 -4.359375 C 19.523438 -2.878906 18.285156 -1.71875 16.703125 -0.875 C 15.117188 -0.0390625 13.332031 0.375 11.34375 0.375 Z M 11.34375 -4.03125 C 12.289062 -4.03125 13.148438 -4.25 13.921875 -4.6875 C 14.691406 -5.132812 15.300781 -5.765625 15.75 -6.578125 C 16.195312 -7.398438 16.421875 -8.335938 16.421875 -9.390625 C 16.421875 -10.441406 16.195312 -11.375 15.75 -12.1875 C 15.300781 -13 14.691406 -13.628906 13.921875 -14.078125 C 13.148438 -14.523438 12.289062 -14.75 11.34375 -14.75 C 10.394531 -14.75 9.535156 -14.523438 8.765625 -14.078125 C 8.003906 -13.628906 7.398438 -13 6.953125 -12.1875 C 6.503906 -11.375 6.28125 -10.441406 6.28125 -9.390625 C 6.28125 -8.335938 6.503906 -7.398438 6.953125 -6.578125 C 7.398438 -5.765625 8.003906 -5.132812 8.765625 -4.6875 C 9.535156 -4.25 10.394531 -4.03125 11.34375 -4.03125 Z M 11.34375 -4.03125 "/></g></g></g><g fill="#ffffff" fill-opacity="1"><g transform="translate(53.625645, 19.277464)"><g><path d="M 1.875 -18.78125 L 7.1875 -18.78125 L 7.1875 -4.21875 L 16.15625 -4.21875 L 16.15625 0 L 1.875 0 Z M 1.875 -18.78125 "/></g></g></g><g fill="#ffffff" fill-opacity="1"><g transform="translate(72.326918, 19.277464)"><g><path d="M 1.875 -18.78125 L 10.765625 -18.78125 C 12.816406 -18.78125 14.640625 -18.394531 16.234375 -17.625 C 17.828125 -16.851562 19.0625 -15.757812 19.9375 -14.34375 C 20.8125 -12.9375 21.25 -11.285156 21.25 -9.390625 C 21.25 -7.492188 20.8125 -5.835938 19.9375 -4.421875 C 19.0625 -3.015625 17.828125 -1.925781 16.234375 -1.15625 C 14.640625 -0.382812 12.816406 0 10.765625 0 L 1.875 0 Z M 10.546875 -4.234375 C 12.148438 -4.234375 13.4375 -4.6875 14.40625 -5.59375 C 15.382812 -6.507812 15.875 -7.773438 15.875 -9.390625 C 15.875 -10.992188 15.382812 -12.253906 14.40625 -13.171875 C 13.4375 -14.085938 12.148438 -14.546875 10.546875 -14.546875 L 7.1875 -14.546875 L 7.1875 -4.234375 Z M 10.546875 -4.234375 "/></g></g></g><g fill="#ffffff" fill-opacity="1"><g transform="translate(51.425624, 26.96978)"><g><path d="M 1.828125 0.046875 C 1.515625 0.046875 1.210938 0 0.921875 -0.09375 C 0.640625 -0.195312 0.414062 -0.320312 0.25 -0.46875 L 0.46875 -0.9375 C 0.625 -0.789062 0.820312 -0.671875 1.0625 -0.578125 C 1.3125 -0.492188 1.566406 -0.453125 1.828125 -0.453125 C 2.171875 -0.453125 2.425781 -0.507812 2.59375 -0.625 C 2.769531 -0.75 2.859375 -0.90625 2.859375 -1.09375 C 2.859375 -1.238281 2.8125 -1.351562 2.71875 -1.4375 C 2.625 -1.53125 2.507812 -1.597656 2.375 -1.640625 C 2.238281 -1.691406 2.046875 -1.75 1.796875 -1.8125 C 1.484375 -1.882812 1.226562 -1.957031 1.03125 -2.03125 C 0.84375 -2.113281 0.679688 -2.234375 0.546875 -2.390625 C 0.410156 -2.546875 0.34375 -2.753906 0.34375 -3.015625 C 0.34375 -3.234375 0.398438 -3.429688 0.515625 -3.609375 C 0.628906 -3.796875 0.804688 -3.941406 1.046875 -4.046875 C 1.285156 -4.148438 1.582031 -4.203125 1.9375 -4.203125 C 2.175781 -4.203125 2.414062 -4.171875 2.65625 -4.109375 C 2.894531 -4.046875 3.097656 -3.953125 3.265625 -3.828125 L 3.078125 -3.359375 C 2.898438 -3.472656 2.710938 -3.554688 2.515625 -3.609375 C 2.316406 -3.671875 2.125 -3.703125 1.9375 -3.703125 C 1.601562 -3.703125 1.347656 -3.640625 1.171875 -3.515625 C 1.003906 -3.390625 0.921875 -3.234375 0.921875 -3.046875 C 0.921875 -2.898438 0.96875 -2.78125 1.0625 -2.6875 C 1.164062 -2.601562 1.285156 -2.535156 1.421875 -2.484375 C 1.566406 -2.429688 1.757812 -2.378906 2 -2.328125 C 2.3125 -2.253906 2.5625 -2.175781 2.75 -2.09375 C 2.9375 -2.019531 3.097656 -1.90625 3.234375 -1.75 C 3.367188 -1.601562 3.4375 -1.398438 3.4375 -1.140625 C 3.4375 -0.921875 3.378906 -0.71875 3.265625 -0.53125 C 3.148438 -0.351562 2.96875 -0.210938 2.71875 -0.109375 C 2.476562 -0.00390625 2.179688 0.046875 1.828125 0.046875 Z M 1.828125 0.046875 "/></g></g></g><g fill="#ffffff" fill-opacity="1"><g transform="translate(56.58782, 26.96978)"><g><path d="M 1.453125 -3.640625 L 0.03125 -3.640625 L 0.03125 -4.15625 L 3.46875 -4.15625 L 3.46875 -3.640625 L 2.03125 -3.640625 L 2.03125 0 L 1.453125 0 Z M 1.453125 -3.640625 "/></g></g></g><g fill="#ffffff" fill-opacity="1"><g transform="translate(61.548042, 26.96978)"><g><path d="M 3.40625 0 L 2.5 -1.28125 C 2.394531 -1.269531 2.3125 -1.265625 2.25 -1.265625 L 1.21875 -1.265625 L 1.21875 0 L 0.625 0 L 0.625 -4.15625 L 2.25 -4.15625 C 2.78125 -4.15625 3.203125 -4.023438 3.515625 -3.765625 C 3.828125 -3.515625 3.984375 -3.160156 3.984375 -2.703125 C 3.984375 -2.390625 3.898438 -2.117188 3.734375 -1.890625 C 3.578125 -1.660156 3.351562 -1.492188 3.0625 -1.390625 L 4.046875 0 Z M 2.234375 -1.765625 C 2.609375 -1.765625 2.894531 -1.84375 3.09375 -2 C 3.289062 -2.164062 3.390625 -2.398438 3.390625 -2.703125 C 3.390625 -3.003906 3.289062 -3.234375 3.09375 -3.390625 C 2.894531 -3.554688 2.609375 -3.640625 2.234375 -3.640625 L 1.21875 -3.640625 L 1.21875 -1.765625 Z M 2.234375 -1.765625 "/></g></g></g><g fill="#ffffff" fill-opacity="1"><g transform="translate(67.339918, 26.96978)"><g><path d="M 3.265625 -1.046875 L 1.0625 -1.046875 L 0.609375 0 L 0 0 L 1.875 -4.15625 L 2.46875 -4.15625 L 4.359375 0 L 3.734375 0 Z M 3.0625 -1.515625 L 2.171875 -3.546875 L 1.265625 -1.515625 Z M 3.0625 -1.515625 "/></g></g></g><g fill="#ffffff" fill-opacity="1"><g transform="translate(73.161493, 26.96978)"><g><path d="M 1.453125 -3.640625 L 0.03125 -3.640625 L 0.03125 -4.15625 L 3.46875 -4.15625 L 3.46875 -3.640625 L 2.03125 -3.640625 L 2.03125 0 L 1.453125 0 Z M 1.453125 -3.640625 "/></g></g></g><g fill="#ffffff" fill-opacity="1"><g transform="translate(78.121714, 26.96978)"><g><path d="M 3.640625 -0.515625 L 3.640625 0 L 0.625 0 L 0.625 -4.15625 L 3.5625 -4.15625 L 3.5625 -3.640625 L 1.21875 -3.640625 L 1.21875 -2.359375 L 3.296875 -2.359375 L 3.296875 -1.859375 L 1.21875 -1.859375 L 1.21875 -0.515625 Z M 3.640625 -0.515625 "/></g></g></g><g fill="#ffffff" fill-opacity="1"><g transform="translate(83.574985, 26.96978)"><g><path d="M 3.5 -2.109375 L 4.078125 -2.109375 L 4.078125 -0.484375 C 3.867188 -0.304688 3.625 -0.171875 3.34375 -0.078125 C 3.070312 0.00390625 2.789062 0.046875 2.5 0.046875 C 2.082031 0.046875 1.703125 -0.0390625 1.359375 -0.21875 C 1.023438 -0.40625 0.757812 -0.660156 0.5625 -0.984375 C 0.375 -1.304688 0.28125 -1.671875 0.28125 -2.078125 C 0.28125 -2.484375 0.375 -2.847656 0.5625 -3.171875 C 0.757812 -3.492188 1.023438 -3.742188 1.359375 -3.921875 C 1.703125 -4.109375 2.085938 -4.203125 2.515625 -4.203125 C 2.847656 -4.203125 3.148438 -4.144531 3.421875 -4.03125 C 3.691406 -3.925781 3.921875 -3.769531 4.109375 -3.5625 L 3.734375 -3.1875 C 3.398438 -3.507812 3 -3.671875 2.53125 -3.671875 C 2.21875 -3.671875 1.9375 -3.601562 1.6875 -3.46875 C 1.4375 -3.332031 1.238281 -3.140625 1.09375 -2.890625 C 0.945312 -2.648438 0.875 -2.378906 0.875 -2.078125 C 0.875 -1.773438 0.945312 -1.5 1.09375 -1.25 C 1.238281 -1.007812 1.4375 -0.820312 1.6875 -0.6875 C 1.9375 -0.550781 2.21875 -0.484375 2.53125 -0.484375 C 2.90625 -0.484375 3.226562 -0.570312 3.5 -0.75 Z M 3.5 -2.109375 "/></g></g></g><g fill="#ffffff" fill-opacity="1"><g transform="translate(89.634179, 26.96978)"><g><path d="M 2.21875 -1.4375 L 2.21875 0 L 1.625 0 L 1.625 -1.453125 L -0.03125 -4.15625 L 0.609375 -4.15625 L 1.9375 -1.96875 L 3.28125 -4.15625 L 3.859375 -4.15625 Z M 2.21875 -1.4375 "/></g></g></g></svg>